<svg width="300" height="300" viewBox="0 0 300 300" fill="none" xmlns="http://www.w3.org/2000/svg">
<path d="M243.749 37.5044H56.249C46.3067 37.5153 36.7748 41.4696 29.7445 48.4999C22.7142 55.5301 18.7599 65.0621 18.749 75.0044V225.004C18.7599 234.947 22.7142 244.479 29.7445 251.509C36.7748 258.539 46.3067 262.494 56.249 262.504H243.749C253.691 262.494 263.223 258.539 270.254 251.509C277.284 244.479 281.238 234.947 281.249 225.004V75.0044C281.238 65.0621 277.284 55.5301 270.254 48.4999C263.223 41.4696 253.691 37.5153 243.749 37.5044ZM196.874 75.0044C202.437 75.0044 207.874 76.6539 212.499 79.7443C217.125 82.8347 220.729 87.2272 222.858 92.3664C224.987 97.5056 225.544 103.161 224.459 108.616C223.373 114.072 220.695 119.083 216.761 123.017C212.828 126.95 207.817 129.629 202.361 130.714C196.905 131.799 191.25 131.242 186.111 129.114C180.972 126.985 176.579 123.38 173.489 118.755C170.398 114.13 168.749 108.692 168.749 103.129C168.757 95.6726 171.722 88.5234 176.995 83.2506C182.268 77.9778 189.417 75.0121 196.874 75.0044ZM56.249 243.754C51.2762 243.754 46.5071 241.779 42.9908 238.263C39.4745 234.746 37.499 229.977 37.499 225.004V185.377L93.0693 135.983C98.4309 131.228 105.404 128.696 112.567 128.903C119.731 129.109 126.546 132.04 131.624 137.096L169.681 175.071L100.997 243.754H56.249ZM262.499 225.004C262.499 229.977 260.524 234.746 257.007 238.263C253.491 241.779 248.722 243.754 243.749 243.754H127.517L198.661 172.61C203.698 168.326 210.09 165.966 216.703 165.949C223.315 165.932 229.719 168.259 234.778 172.516L262.499 195.614V225.004Z" fill="#666666"/>
</svg>
