<svg width="44" height="40" viewBox="0 0 44 40" fill="none" xmlns="http://www.w3.org/2000/svg">
<path d="M42.625 8.56032C41.0777 9.17153 39.4405 9.57421 37.7652 9.75563C39.5258 8.81842 40.8498 7.32951 41.4889 5.56813C39.8244 6.45297 38.0063 7.07381 36.1127 7.40407C35.3152 6.64432 34.3562 6.03993 33.2938 5.62762C32.2315 5.2153 31.088 5.00369 29.9329 5.00563C25.2562 5.00563 21.4715 8.39625 21.4715 12.5759C21.4682 13.1573 21.5415 13.737 21.6898 14.3025C18.3362 14.1596 15.0524 13.3819 12.0484 12.0191C9.04444 10.6564 6.38643 8.73856 4.24445 6.38844C3.49299 7.5401 3.09558 8.8541 3.09375 10.1931C3.09375 12.8181 4.60023 15.1384 6.875 16.4978C5.52727 16.4687 4.20715 16.1445 3.02672 15.5525V15.6463C3.02672 19.3181 5.94859 22.3728 9.81578 23.0681C9.08856 23.2444 8.33918 23.3337 7.58656 23.3337C7.05253 23.3346 6.51971 23.2875 5.99586 23.1931C7.07094 26.2009 10.1999 28.3884 13.9064 28.4509C10.8946 30.561 7.19694 31.7015 3.39453 31.6931C2.71959 31.6922 2.04528 31.6557 1.375 31.5837C5.2432 33.8292 9.73968 35.017 14.3292 35.0056C29.9148 35.0056 38.4295 23.4666 38.4295 13.4588C38.4295 13.1306 38.4201 12.8025 38.4029 12.4822C40.0555 11.4135 41.4853 10.0854 42.625 8.56032Z" fill="#1B1B1B"/>
</svg>
