<svg width="44" height="40" viewBox="0 0 44 40" fill="none" xmlns="http://www.w3.org/2000/svg">
<path d="M38.1709 2.49316H6.03969C4.28398 2.49316 2.75 3.6416 2.75 5.21894V34.4939C2.75 36.0799 4.28398 37.4932 6.03969 37.4932H38.1614C39.9266 37.4932 41.25 36.0705 41.25 34.4939V5.21894C41.2603 3.6416 39.9266 2.49316 38.1709 2.49316ZM14.6841 31.6674H9.16867V16.0775H14.6841V31.6674ZM12.1172 13.7072H12.0777C10.3125 13.7072 9.16953 12.5127 9.16953 11.0174C9.16953 9.49473 10.3426 8.32832 12.1473 8.32832C13.952 8.32832 15.0562 9.48613 15.0958 11.0174C15.0949 12.5127 13.952 13.7072 12.1172 13.7072ZM34.8416 31.6674H29.3262V23.1432C29.3262 21.101 28.5235 19.7057 26.528 19.7057C25.0035 19.7057 24.1012 20.6432 23.6998 21.5564C23.5495 21.8846 23.5091 22.3314 23.5091 22.7877V31.6674H17.9936V16.0775H23.5091V18.2471C24.3117 17.208 25.5655 15.7127 28.4831 15.7127C32.1037 15.7127 34.8425 17.8822 34.8425 22.5596L34.8416 31.6674Z" fill="#1B1B1B"/>
</svg>
