<svg width="192" height="192" viewBox="0 0 192 192" fill="none" xmlns="http://www.w3.org/2000/svg">
<path d="M98.4522 18.031C132.956 19.1061 160.046 47.834 158.969 82.1915C157.89 116.553 129.049 143.536 94.5451 142.461C60.0473 141.385 32.9518 112.66 34.0312 78.3004C35.108 43.9432 63.9544 16.956 98.4522 18.031Z" fill="#B13E33"/>
<g filter="url(#filter0_i_643_808)">
<path d="M139.642 45.5405C148.428 56.2424 153.285 70.1968 152.161 85.059C149.845 115.7 123.035 138.741 92.3954 136.424C77.532 135.299 64.4667 128.4 55.207 118.106C64.5301 129.466 78.278 137.158 94.0551 138.35C124.693 140.668 151.498 117.629 153.815 86.9885C155.011 71.2137 149.47 56.4676 139.642 45.5405Z" fill="#59B844"/>
</g>
<g filter="url(#filter1_i_643_808)">
<path d="M131.655 37.1656C120.789 28.5839 106.745 23.9885 91.9063 25.3929C61.3162 28.2857 38.783 55.5245 41.6758 86.1146C43.0801 100.956 50.2218 113.888 60.6899 122.952C49.1564 113.845 41.2068 100.241 39.7158 84.4912C36.823 53.9007 59.3515 26.6673 89.9463 23.7744C105.695 22.2834 120.547 27.544 131.655 37.1656Z" fill="#59B844"/>
</g>
<g filter="url(#filter2_i_643_808)">
<path d="M131.575 42.2036C121.721 34.4202 108.983 30.2522 95.5248 31.526C67.7803 34.1497 47.3432 58.8544 49.9669 86.599C51.2406 100.06 57.7179 111.789 67.2114 120.009C56.7516 111.75 49.5416 99.4121 48.1892 85.1269C45.5655 57.3824 65.9986 32.6818 93.7478 30.0581C108.031 28.7057 121.502 33.4769 131.575 42.2036Z" fill="#3F8330"/>
</g>
<g filter="url(#filter3_i_643_808)">
<path d="M63.4662 119.281C73.32 127.064 86.0581 131.232 99.5164 129.958C127.261 127.334 147.698 102.63 145.074 74.885C143.8 61.4245 137.324 49.6949 127.83 41.4746C138.29 49.7342 145.5 62.0719 146.852 76.3571C149.476 104.102 129.043 128.802 101.295 131.426C87.0105 132.779 73.5406 128.007 63.4662 119.281Z" fill="#3F8330"/>
</g>
<g filter="url(#filter4_d_643_808)">
<g filter="url(#filter5_ii_643_808)">
<path d="M93.7701 69.7325C93.3185 71.5271 92.2805 74.0512 91.8183 75.0881C92.8869 77.8093 94.6956 75.1127 95.4662 73.4237L95.723 72.8443L95.9283 73.4237C96.4244 73.4237 97.6443 73.4964 98.5486 73.7862C100.192 74.6541 102.418 76.8018 103.326 77.7659L104.251 77.9829L103.583 78.3453L105.124 82.1093L107.95 79.2133L108.926 80.7334L116.632 70.7459V108.492H126.599V50.7703H116.53L102.659 69.4428L105.124 74.5099C104.473 73.8823 102.998 72.4396 102.299 71.6866C101.189 71.8602 99.3357 70.2638 98.5486 69.4428C97.2983 69.5401 94.5923 69.7325 93.7701 69.7325Z" fill="white"/>
</g>
<g filter="url(#filter6_ii_643_808)">
<path d="M92.6407 70.8902C90.2561 72.049 89.8667 71.6139 89.9687 71.2526L90.7909 69.4428L77.0735 50.7703H66.9018V108.157H77.0735V70.8902L84.626 80.7334L87.9653 75.0154C87.6052 76.2458 86.8346 78.9682 86.6294 80.0097C88.3149 80.5892 89.9007 82.8084 90.4824 83.8452C90.6373 83.5802 91.0889 82.8764 91.6648 82.1808C93.308 81.3129 93.4629 83.7737 93.8218 84.1349C95.1777 83.2083 95.7231 84.7625 95.8252 85.6551C96.014 85.4862 96.4832 85.2504 96.8526 85.6551C97.9317 86.7412 97.5212 87.8989 97.4696 88.7669C98.3739 89.5774 98.6343 88.6707 98.6508 88.1159C98.2062 87.1271 97.2538 85.0616 97.0075 84.7144C96.7612 84.3672 97.1095 84.2804 97.316 84.2804C97.6925 85.0041 98.6097 86.7846 99.2677 88.1159C100.583 88.9264 100.946 87.5845 100.963 86.8128C100.398 85.6797 99.1962 83.2811 98.9076 82.7603C98.6203 82.2395 99.0284 82.2536 99.2677 82.3263C99.6442 83.1215 100.634 85.1343 101.58 86.8128C102.853 87.2186 103.103 86.0656 103.069 85.4381C102.368 84.1115 100.902 81.3269 100.655 80.8062C100.408 80.2854 100.757 80.1552 100.963 80.1552C101.512 81.2882 102.792 83.7878 103.531 84.7144C104.642 84.9455 104.851 83.7491 104.816 83.1215C104.491 82.2536 103.594 79.9663 102.607 77.7659C100.757 76.0874 99.0625 74.9438 98.4455 74.5814L95.8768 74.0747C95.5859 74.5579 94.7672 75.7684 93.8218 76.7525C92.6406 77.9829 90.8942 76.0288 91.0994 75.5221C93.1028 70.9629 92.6407 71.6139 92.6407 70.8902Z" fill="white"/>
</g>
<g filter="url(#filter7_i_643_808)">
<path d="M88.2738 84.9315C87.78 83.8313 88.4099 82.7358 88.7875 82.3264C89.4444 82.7897 89.9511 83.9662 90.1223 84.4975C89.7118 85.1004 88.7664 86.0317 88.2738 84.9315Z" fill="white"/>
</g>
<g filter="url(#filter8_i_643_808)">
<path d="M93.0208 85.3935C93.3991 84.7773 93.334 83.8246 92.8753 83.2656C92.4166 82.7066 91.738 82.753 91.3596 83.3692L90.4485 84.853C90.0701 85.4693 90.1352 86.422 90.5939 86.981C91.0526 87.54 91.7312 87.4936 92.1096 86.8774L93.0208 85.3935Z" fill="white"/>
</g>
<g filter="url(#filter9_i_643_808)">
<path d="M95.2822 86.841C95.6606 86.2248 95.5955 85.2721 95.1367 84.7131C94.678 84.1541 93.9994 84.2005 93.621 84.8167L92.7099 86.3005C92.3315 86.9168 92.3966 87.8695 92.8553 88.4285C93.3141 88.9875 93.9927 88.9411 94.3711 88.3249L95.2822 86.841Z" fill="white"/>
</g>
<g filter="url(#filter10_i_643_808)">
<path d="M97.0553 88.2931C97.3644 87.7896 97.3112 87.0113 96.9364 86.5547C96.5617 86.098 96.0073 86.1359 95.6982 86.6393L94.9525 87.8538C94.6433 88.3572 94.6965 89.1355 95.0713 89.5922C95.446 90.0488 96.0004 90.0109 96.3095 89.5075L97.0553 88.2931Z" fill="white"/>
</g>
</g>
<g filter="url(#filter11_i_643_808)">
<path d="M36.3875 172.732L31.6105 157.179H31.4994C31.518 157.549 31.5457 158.104 31.5827 158.845C31.6198 159.586 31.6568 160.382 31.6938 161.234C31.7309 162.067 31.7494 162.826 31.7494 163.511V172.732H28V152.902H33.7213L38.4149 168.066H38.4982L43.4696 152.902H49.1909V172.732H45.2749V163.345C45.2749 162.715 45.2842 161.992 45.3026 161.178C45.3398 160.364 45.3675 159.595 45.386 158.873C45.4231 158.132 45.4509 157.577 45.4693 157.207H45.3582L40.2479 172.732H36.3875ZM60.9494 157.29C63.0412 157.29 64.6987 157.892 65.9208 159.095C67.1428 160.281 67.7538 161.975 67.7538 164.178V166.177H57.9777C58.0143 167.344 58.3564 168.26 59.0053 168.927C59.6718 169.593 60.5883 169.927 61.7548 169.927C62.7357 169.927 63.6244 169.835 64.421 169.649C65.2163 169.446 66.0407 169.14 66.8928 168.733V171.926C66.1518 172.296 65.3653 172.565 64.5321 172.732C63.7166 172.917 62.7269 173.01 61.5604 173.01C60.0417 173.01 58.6998 172.732 57.5333 172.176C56.3668 171.602 55.4503 170.741 54.7837 169.593C54.1172 168.446 53.7839 167.002 53.7839 165.261C53.7839 163.483 54.0793 162.011 54.6726 160.845C55.2837 159.66 56.1257 158.771 57.2 158.179C58.2731 157.587 59.5229 157.29 60.9494 157.29ZM60.9772 160.234C60.1806 160.234 59.514 160.493 58.9775 161.012C58.4586 161.53 58.1531 162.336 58.061 163.428H63.8656C63.8466 162.503 63.6055 161.743 63.1434 161.15C62.6801 160.539 61.958 160.234 60.9772 160.234ZM80.5521 157.29C82.1806 157.29 83.486 157.734 84.4681 158.623C85.449 159.493 85.9401 160.901 85.9401 162.845V172.732H81.8019V163.872C81.8019 162.78 81.6075 161.965 81.2187 161.428C80.8299 160.873 80.2088 160.595 79.3579 160.595C78.098 160.595 77.237 161.031 76.775 161.9C76.3117 162.752 76.0807 163.983 76.0807 165.594V172.732H71.9425V157.568H75.1086L75.6641 159.512H75.8863C76.3672 158.734 77.025 158.17 77.8581 157.818C78.709 157.465 79.6078 157.29 80.5521 157.29ZM97.4167 169.705C97.8788 169.705 98.3231 169.658 98.7498 169.566C99.1753 169.474 99.6007 169.362 100.027 169.232V172.315C99.583 172.501 99.0276 172.657 98.361 172.787C97.7121 172.935 97.0001 173.01 96.2225 173.01C95.3148 173.01 94.5005 172.862 93.7784 172.565C93.074 172.269 92.5097 171.76 92.0843 171.038C91.6765 170.297 91.4733 169.279 91.4733 167.983V160.678H89.5014V158.929L91.7788 157.54L92.973 154.346H95.6115V157.568H99.8608V160.678H95.6115V167.983C95.6115 168.557 95.7781 168.991 96.1114 169.288C96.4447 169.566 96.8789 169.705 97.4167 169.705ZM117.68 165.122C117.68 167.641 117.013 169.585 115.68 170.954C114.365 172.324 112.569 173.01 110.292 173.01C108.884 173.01 107.626 172.704 106.515 172.093C105.422 171.482 104.561 170.593 103.932 169.427C103.302 168.241 102.988 166.807 102.988 165.122C102.988 162.603 103.644 160.669 104.96 159.317C106.274 157.965 108.079 157.29 110.375 157.29C111.801 157.29 113.059 157.595 114.153 158.207C115.245 158.818 116.105 159.706 116.735 160.873C117.364 162.02 117.68 163.437 117.68 165.122ZM107.209 165.122C107.209 166.622 107.449 167.76 107.931 168.538C108.431 169.297 109.237 169.677 110.348 169.677C111.44 169.677 112.226 169.297 112.708 168.538C113.208 167.76 113.458 166.622 113.458 165.122C113.458 163.622 113.208 162.503 112.708 161.761C112.226 161.003 111.431 160.623 110.32 160.623C109.227 160.623 108.431 161.003 107.931 161.761C107.449 162.503 107.209 163.622 107.209 165.122ZM130.404 157.29C130.607 157.29 130.848 157.299 131.126 157.318C131.403 157.337 131.626 157.364 131.792 157.401L131.487 161.289C131.357 161.253 131.162 161.225 130.903 161.206C130.662 161.169 130.449 161.15 130.265 161.15C129.56 161.15 128.885 161.28 128.237 161.539C127.588 161.78 127.061 162.178 126.654 162.734C126.265 163.289 126.071 164.048 126.071 165.011V172.732H121.933V157.568H125.071L125.682 160.123H125.877C126.321 159.345 126.932 158.679 127.71 158.123C128.487 157.568 129.385 157.29 130.404 157.29Z" fill="#121212"/>
<path d="M147.125 172.732H135.711V152.902H147.125V156.346H139.904V160.706H146.626V164.15H139.904V169.26H147.125V172.732ZM156.557 173.01C154.872 173.01 153.492 172.352 152.419 171.038C151.363 169.705 150.836 167.752 150.836 165.178C150.836 162.586 151.372 160.623 152.447 159.29C153.52 157.957 154.927 157.29 156.668 157.29C157.76 157.29 158.658 157.503 159.362 157.929C160.065 158.354 160.621 158.882 161.028 159.512H161.167C161.112 159.215 161.046 158.79 160.973 158.234C160.898 157.66 160.862 157.077 160.862 156.485V151.624H165V172.732H161.834L161.028 170.76H160.862C160.454 171.39 159.907 171.926 159.223 172.371C158.538 172.796 157.649 173.01 156.557 173.01ZM158.001 169.705C159.149 169.705 159.954 169.371 160.417 168.705C160.879 168.019 161.121 167.002 161.14 165.65V165.205C161.14 163.724 160.907 162.595 160.445 161.817C160.001 161.039 159.168 160.651 157.946 160.651C157.038 160.651 156.325 161.048 155.807 161.845C155.288 162.622 155.029 163.752 155.029 165.233C155.029 166.714 155.288 167.835 155.807 168.594C156.325 169.335 157.057 169.705 158.001 169.705Z" fill="#3FA927"/>
</g>
<defs>
<filter id="filter0_i_643_808" x="55.207" y="45.5405" width="98.769" height="96.9702" filterUnits="userSpaceOnUse" color-interpolation-filters="sRGB">
<feFlood flood-opacity="0" result="BackgroundImageFix"/>
<feBlend mode="normal" in="SourceGraphic" in2="BackgroundImageFix" result="shape"/>
<feColorMatrix in="SourceAlpha" type="matrix" values="0 0 0 0 0 0 0 0 0 0 0 0 0 0 0 0 0 0 127 0" result="hardAlpha"/>
<feOffset dy="4"/>
<feGaussianBlur stdDeviation="2"/>
<feComposite in2="hardAlpha" operator="arithmetic" k2="-1" k3="1"/>
<feColorMatrix type="matrix" values="0 0 0 0 0 0 0 0 0 0 0 0 0 0 0 0 0 0 0.25 0"/>
<feBlend mode="normal" in2="shape" result="effect1_innerShadow_643_808"/>
</filter>
<filter id="filter1_i_643_808" x="39.4656" y="23.5242" width="92.1891" height="103.427" filterUnits="userSpaceOnUse" color-interpolation-filters="sRGB">
<feFlood flood-opacity="0" result="BackgroundImageFix"/>
<feBlend mode="normal" in="SourceGraphic" in2="BackgroundImageFix" result="shape"/>
<feColorMatrix in="SourceAlpha" type="matrix" values="0 0 0 0 0 0 0 0 0 0 0 0 0 0 0 0 0 0 127 0" result="hardAlpha"/>
<feOffset dy="4"/>
<feGaussianBlur stdDeviation="2"/>
<feComposite in2="hardAlpha" operator="arithmetic" k2="-1" k3="1"/>
<feColorMatrix type="matrix" values="0 0 0 0 0 0 0 0 0 0 0 0 0 0 0 0 0 0 0.25 0"/>
<feBlend mode="normal" in2="shape" result="effect1_innerShadow_643_808"/>
</filter>
<filter id="filter2_i_643_808" x="47.9623" y="29.8311" width="83.6126" height="94.1777" filterUnits="userSpaceOnUse" color-interpolation-filters="sRGB">
<feFlood flood-opacity="0" result="BackgroundImageFix"/>
<feBlend mode="normal" in="SourceGraphic" in2="BackgroundImageFix" result="shape"/>
<feColorMatrix in="SourceAlpha" type="matrix" values="0 0 0 0 0 0 0 0 0 0 0 0 0 0 0 0 0 0 127 0" result="hardAlpha"/>
<feOffset dy="4"/>
<feGaussianBlur stdDeviation="2"/>
<feComposite in2="hardAlpha" operator="arithmetic" k2="-1" k3="1"/>
<feColorMatrix type="matrix" values="0 0 0 0 0 0 0 0 0 0 0 0 0 0 0 0 0 0 0.25 0"/>
<feBlend mode="normal" in2="shape" result="effect1_innerShadow_643_808"/>
</filter>
<filter id="filter3_i_643_808" x="63.4662" y="41.4746" width="83.6131" height="94.1787" filterUnits="userSpaceOnUse" color-interpolation-filters="sRGB">
<feFlood flood-opacity="0" result="BackgroundImageFix"/>
<feBlend mode="normal" in="SourceGraphic" in2="BackgroundImageFix" result="shape"/>
<feColorMatrix in="SourceAlpha" type="matrix" values="0 0 0 0 0 0 0 0 0 0 0 0 0 0 0 0 0 0 127 0" result="hardAlpha"/>
<feOffset dy="4"/>
<feGaussianBlur stdDeviation="2"/>
<feComposite in2="hardAlpha" operator="arithmetic" k2="-1" k3="1"/>
<feColorMatrix type="matrix" values="0 0 0 0 0 0 0 0 0 0 0 0 0 0 0 0 0 0 0.25 0"/>
<feBlend mode="normal" in2="shape" result="effect1_innerShadow_643_808"/>
</filter>
<filter id="filter4_d_643_808" x="56.9018" y="40.7703" width="89.6975" height="87.7219" filterUnits="userSpaceOnUse" color-interpolation-filters="sRGB">
<feFlood flood-opacity="0" result="BackgroundImageFix"/>
<feColorMatrix in="SourceAlpha" type="matrix" values="0 0 0 0 0 0 0 0 0 0 0 0 0 0 0 0 0 0 127 0" result="hardAlpha"/>
<feOffset dx="5" dy="5"/>
<feGaussianBlur stdDeviation="7.5"/>
<feColorMatrix type="matrix" values="0 0 0 0 0.501961 0 0 0 0 0.501961 0 0 0 0 0.501961 0 0 0 0.5 0"/>
<feBlend mode="normal" in2="BackgroundImageFix" result="effect1_dropShadow_643_808"/>
<feBlend mode="normal" in="SourceGraphic" in2="effect1_dropShadow_643_808" result="shape"/>
</filter>
<filter id="filter5_ii_643_808" x="91.8183" y="50.7703" width="36.781" height="61.7219" filterUnits="userSpaceOnUse" color-interpolation-filters="sRGB">
<feFlood flood-opacity="0" result="BackgroundImageFix"/>
<feBlend mode="normal" in="SourceGraphic" in2="BackgroundImageFix" result="shape"/>
<feColorMatrix in="SourceAlpha" type="matrix" values="0 0 0 0 0 0 0 0 0 0 0 0 0 0 0 0 0 0 127 0" result="hardAlpha"/>
<feOffset dx="2" dy="4"/>
<feGaussianBlur stdDeviation="5"/>
<feComposite in2="hardAlpha" operator="arithmetic" k2="-1" k3="1"/>
<feColorMatrix type="matrix" values="0 0 0 0 0 0 0 0 0 0 0 0 0 0 0 0 0 0 0.35 0"/>
<feBlend mode="normal" in2="shape" result="effect1_innerShadow_643_808"/>
<feColorMatrix in="SourceAlpha" type="matrix" values="0 0 0 0 0 0 0 0 0 0 0 0 0 0 0 0 0 0 127 0" result="hardAlpha"/>
<feOffset dy="4"/>
<feGaussianBlur stdDeviation="2"/>
<feComposite in2="hardAlpha" operator="arithmetic" k2="-1" k3="1"/>
<feColorMatrix type="matrix" values="0 0 0 0 1 0 0 0 0 1 0 0 0 0 1 0 0 0 0.25 0"/>
<feBlend mode="normal" in2="effect1_innerShadow_643_808" result="effect2_innerShadow_643_808"/>
</filter>
<filter id="filter6_ii_643_808" x="66.9018" y="50.7703" width="39.9175" height="61.3865" filterUnits="userSpaceOnUse" color-interpolation-filters="sRGB">
<feFlood flood-opacity="0" result="BackgroundImageFix"/>
<feBlend mode="normal" in="SourceGraphic" in2="BackgroundImageFix" result="shape"/>
<feColorMatrix in="SourceAlpha" type="matrix" values="0 0 0 0 0 0 0 0 0 0 0 0 0 0 0 0 0 0 127 0" result="hardAlpha"/>
<feOffset dy="4"/>
<feGaussianBlur stdDeviation="2"/>
<feComposite in2="hardAlpha" operator="arithmetic" k2="-1" k3="1"/>
<feColorMatrix type="matrix" values="0 0 0 0 0 0 0 0 0 0 0 0 0 0 0 0 0 0 0.25 0"/>
<feBlend mode="normal" in2="shape" result="effect1_innerShadow_643_808"/>
<feColorMatrix in="SourceAlpha" type="matrix" values="0 0 0 0 0 0 0 0 0 0 0 0 0 0 0 0 0 0 127 0" result="hardAlpha"/>
<feOffset dx="2" dy="4"/>
<feGaussianBlur stdDeviation="5"/>
<feComposite in2="hardAlpha" operator="arithmetic" k2="-1" k3="1"/>
<feColorMatrix type="matrix" values="0 0 0 0 0.9625 0 0 0 0 0.940042 0 0 0 0 0.940042 0 0 0 0.35 0"/>
<feBlend mode="normal" in2="effect1_innerShadow_643_808" result="effect2_innerShadow_643_808"/>
</filter>
<filter id="filter7_i_643_808" x="88.0923" y="82.3264" width="2.03002" height="7.11548" filterUnits="userSpaceOnUse" color-interpolation-filters="sRGB">
<feFlood flood-opacity="0" result="BackgroundImageFix"/>
<feBlend mode="normal" in="SourceGraphic" in2="BackgroundImageFix" result="shape"/>
<feColorMatrix in="SourceAlpha" type="matrix" values="0 0 0 0 0 0 0 0 0 0 0 0 0 0 0 0 0 0 127 0" result="hardAlpha"/>
<feOffset dy="4"/>
<feGaussianBlur stdDeviation="5"/>
<feComposite in2="hardAlpha" operator="arithmetic" k2="-1" k3="1"/>
<feColorMatrix type="matrix" values="0 0 0 0 0 0 0 0 0 0 0 0 0 0 0 0 0 0 0.35 0"/>
<feBlend mode="normal" in2="shape" result="effect1_innerShadow_643_808"/>
</filter>
<filter id="filter8_i_643_808" x="90.2023" y="82.875" width="3.06458" height="8.49658" filterUnits="userSpaceOnUse" color-interpolation-filters="sRGB">
<feFlood flood-opacity="0" result="BackgroundImageFix"/>
<feBlend mode="normal" in="SourceGraphic" in2="BackgroundImageFix" result="shape"/>
<feColorMatrix in="SourceAlpha" type="matrix" values="0 0 0 0 0 0 0 0 0 0 0 0 0 0 0 0 0 0 127 0" result="hardAlpha"/>
<feOffset dy="4"/>
<feGaussianBlur stdDeviation="5"/>
<feComposite in2="hardAlpha" operator="arithmetic" k2="-1" k3="1"/>
<feColorMatrix type="matrix" values="0 0 0 0 0 0 0 0 0 0 0 0 0 0 0 0 0 0 0.35 0"/>
<feBlend mode="normal" in2="shape" result="effect1_innerShadow_643_808"/>
</filter>
<filter id="filter9_i_643_808" x="92.4637" y="84.3225" width="3.06458" height="8.49658" filterUnits="userSpaceOnUse" color-interpolation-filters="sRGB">
<feFlood flood-opacity="0" result="BackgroundImageFix"/>
<feBlend mode="normal" in="SourceGraphic" in2="BackgroundImageFix" result="shape"/>
<feColorMatrix in="SourceAlpha" type="matrix" values="0 0 0 0 0 0 0 0 0 0 0 0 0 0 0 0 0 0 127 0" result="hardAlpha"/>
<feOffset dy="4"/>
<feGaussianBlur stdDeviation="5"/>
<feComposite in2="hardAlpha" operator="arithmetic" k2="-1" k3="1"/>
<feColorMatrix type="matrix" values="0 0 0 0 0 0 0 0 0 0 0 0 0 0 0 0 0 0 0.35 0"/>
<feBlend mode="normal" in2="shape" result="effect1_innerShadow_643_808"/>
</filter>
<filter id="filter10_i_643_808" x="94.7514" y="86.2356" width="2.50497" height="7.67578" filterUnits="userSpaceOnUse" color-interpolation-filters="sRGB">
<feFlood flood-opacity="0" result="BackgroundImageFix"/>
<feBlend mode="normal" in="SourceGraphic" in2="BackgroundImageFix" result="shape"/>
<feColorMatrix in="SourceAlpha" type="matrix" values="0 0 0 0 0 0 0 0 0 0 0 0 0 0 0 0 0 0 127 0" result="hardAlpha"/>
<feOffset dy="4"/>
<feGaussianBlur stdDeviation="5"/>
<feComposite in2="hardAlpha" operator="arithmetic" k2="-1" k3="1"/>
<feColorMatrix type="matrix" values="0 0 0 0 0 0 0 0 0 0 0 0 0 0 0 0 0 0 0.35 0"/>
<feBlend mode="normal" in2="shape" result="effect1_innerShadow_643_808"/>
</filter>
<filter id="filter11_i_643_808" x="28" y="151.624" width="137" height="25.3853" filterUnits="userSpaceOnUse" color-interpolation-filters="sRGB">
<feFlood flood-opacity="0" result="BackgroundImageFix"/>
<feBlend mode="normal" in="SourceGraphic" in2="BackgroundImageFix" result="shape"/>
<feColorMatrix in="SourceAlpha" type="matrix" values="0 0 0 0 0 0 0 0 0 0 0 0 0 0 0 0 0 0 127 0" result="hardAlpha"/>
<feOffset dy="4"/>
<feGaussianBlur stdDeviation="2"/>
<feComposite in2="hardAlpha" operator="arithmetic" k2="-1" k3="1"/>
<feColorMatrix type="matrix" values="0 0 0 0 0 0 0 0 0 0 0 0 0 0 0 0 0 0 0.25 0"/>
<feBlend mode="normal" in2="shape" result="effect1_innerShadow_643_808"/>
</filter>
</defs>
</svg>
