<svg width="669" height="656" viewBox="0 0 669 656" fill="none" xmlns="http://www.w3.org/2000/svg">
<path d="M342.266 27.4543C479.533 31.6481 587.306 143.716 583.022 277.745C578.728 411.79 463.99 517.05 326.723 512.857C189.48 508.659 81.6849 396.601 85.9789 262.566C90.2631 128.538 205.023 23.2605 342.266 27.4543Z" fill="#B13E33"/>
<g filter="url(#filter0_i_1917_1907)">
<path d="M506.134 134.769C541.085 176.517 560.408 230.953 555.938 288.931C546.722 408.46 440.064 498.344 318.171 489.307C259.039 484.919 207.061 458.005 170.223 417.85C207.313 462.164 262.007 492.171 324.774 496.82C446.662 505.862 553.301 415.987 562.517 296.458C567.277 234.92 545.233 177.396 506.134 134.769Z" fill="#59B844"/>
</g>
<g filter="url(#filter1_i_1917_1907)">
<path d="M474.356 102.098C431.128 68.6213 375.258 50.6945 316.225 56.1729C194.527 67.4577 104.883 173.717 116.392 293.049C121.979 350.945 150.39 401.395 192.036 436.751C146.152 401.226 114.526 348.158 108.594 286.716C97.0857 167.382 186.711 61.1443 308.427 49.8594C371.082 44.0428 430.167 64.5646 474.356 102.098Z" fill="#59B844"/>
</g>
<g filter="url(#filter2_i_1917_1907)">
<path d="M474.039 121.752C434.837 91.3892 384.161 75.1297 330.62 80.0988C220.243 90.334 138.938 186.707 149.376 294.939C154.443 347.449 180.212 393.206 217.98 425.272C176.368 393.055 147.684 344.923 142.304 289.197C131.866 180.965 213.155 84.6076 323.551 74.3724C380.372 69.0967 433.965 87.7094 474.039 121.752Z" fill="#3F8330"/>
</g>
<g filter="url(#filter3_i_1917_1907)">
<path d="M203.081 422.43C242.282 452.794 292.958 469.051 346.5 464.082C456.876 453.846 538.182 357.474 527.743 249.242C522.676 196.732 496.908 150.975 459.139 118.907C500.754 151.128 529.437 199.258 534.818 254.984C545.256 363.216 463.964 459.575 353.574 469.81C296.747 475.086 243.159 456.472 203.081 422.43Z" fill="#3F8330"/>
</g>
<g filter="url(#filter4_d_1917_1907)">
<g filter="url(#filter5_ii_1917_1907)">
<path d="M323.64 229.142C321.843 236.143 317.714 245.99 315.875 250.034C320.126 260.65 327.321 250.131 330.387 243.542L331.409 241.281L332.226 243.542C334.2 243.542 339.053 243.825 342.65 244.955C349.188 248.341 358.044 256.719 361.656 260.481L365.338 261.327L362.678 262.741L368.81 277.424L380.051 266.127L383.933 272.057L414.591 233.095V380.344H454.245V155.17H414.185L359.001 228.012L368.81 247.779C366.22 245.331 360.35 239.703 357.568 236.765C353.154 237.442 345.781 231.215 342.65 228.012C337.676 228.392 326.911 229.142 323.64 229.142Z" fill="white"/>
</g>
<g filter="url(#filter6_ii_1917_1907)">
<path d="M319.147 233.658C309.66 238.179 308.111 236.481 308.517 235.072L311.788 228.012L257.216 155.17H216.749V379.035H257.216V233.658L287.262 272.057L300.547 249.751C299.114 254.551 296.049 265.171 295.232 269.234C301.937 271.494 308.246 280.151 310.561 284.196C311.177 283.162 312.973 280.417 315.264 277.703C321.802 274.317 322.418 283.917 323.846 285.326C329.24 281.712 331.41 287.774 331.816 291.256C332.567 290.597 334.434 289.678 335.903 291.256C340.196 295.493 338.563 300.009 338.358 303.395C341.956 306.557 342.992 303.02 343.057 300.856C341.288 296.999 337.499 288.941 336.519 287.587C335.54 286.232 336.925 285.894 337.747 285.894C339.245 288.717 342.894 295.663 345.511 300.856C350.742 304.018 352.189 298.783 352.254 295.772C350.01 291.352 345.227 281.995 344.079 279.964C342.936 277.932 344.559 277.987 345.511 278.271C347.009 281.373 350.948 289.225 354.709 295.772C359.776 297.356 360.77 292.858 360.635 290.41C357.844 285.235 352.012 274.372 351.032 272.341C350.047 270.309 351.438 269.801 352.254 269.801C354.438 274.221 359.534 283.972 362.473 287.587C366.892 288.488 367.723 283.821 367.583 281.373C366.29 277.987 362.721 269.064 358.796 260.481C351.438 253.933 344.695 249.472 342.24 248.058L332.021 246.081C330.864 247.966 327.607 252.688 323.846 256.527C319.147 261.327 312.199 253.704 313.015 251.727C320.985 233.942 319.147 236.481 319.147 233.658Z" fill="white"/>
</g>
<g filter="url(#filter7_i_1917_1907)">
<path d="M301.774 288.434C299.81 284.142 302.316 279.868 303.818 278.271C306.431 280.078 308.447 284.668 309.129 286.74C307.495 289.092 303.734 292.725 301.774 288.434Z" fill="white"/>
</g>
<g filter="url(#filter8_i_1917_1907)">
<path d="M320.659 290.236C322.165 287.832 321.906 284.115 320.081 281.935C318.256 279.754 315.556 279.935 314.051 282.339L310.426 288.127C308.921 290.531 309.18 294.248 311.005 296.429C312.83 298.609 315.529 298.428 317.035 296.024L320.659 290.236Z" fill="white"/>
</g>
<g filter="url(#filter9_i_1917_1907)">
<path d="M329.655 295.882C331.161 293.479 330.902 289.762 329.077 287.581C327.252 285.401 324.552 285.582 323.047 287.985L319.422 293.774C317.917 296.178 318.176 299.894 320.001 302.075C321.826 304.256 324.525 304.075 326.031 301.671L329.655 295.882Z" fill="white"/>
</g>
<g filter="url(#filter10_i_1917_1907)">
<path d="M336.71 301.547C337.939 299.583 337.728 296.547 336.237 294.766C334.746 292.984 332.541 293.132 331.311 295.096L328.344 299.834C327.114 301.797 327.326 304.834 328.817 306.615C330.308 308.397 332.513 308.249 333.743 306.285L336.71 301.547Z" fill="white"/>
</g>
</g>
<path d="M123.2 615L106 559H105.6C105.667 560.333 105.767 562.333 105.9 565C106.033 567.667 106.167 570.533 106.3 573.6C106.433 576.667 106.5 579.4 106.5 581.8V615H93V543.6H113.6L130.5 598.2H130.8L148.7 543.6H169.3V615H155.2V581.2C155.2 578.933 155.233 576.333 155.3 573.4C155.433 570.467 155.533 567.7 155.6 565.1C155.733 562.433 155.833 560.433 155.9 559.1H155.5L137.1 615H123.2ZM208.636 559.4C216.169 559.4 222.136 561.567 226.536 565.9C230.936 570.167 233.136 576.267 233.136 584.2V591.4H197.936C198.069 595.6 199.303 598.9 201.636 601.3C204.036 603.7 207.336 604.9 211.536 604.9C215.003 604.9 218.169 604.567 221.036 603.9C223.969 603.167 226.969 602.067 230.036 600.6V612.1C227.303 613.433 224.469 614.4 221.536 615C218.603 615.667 215.036 616 210.836 616C205.369 616 200.536 615 196.336 613C192.136 610.933 188.836 607.867 186.436 603.8C184.036 599.667 182.836 594.433 182.836 588.1C182.836 581.767 183.903 576.467 186.036 572.2C188.236 567.933 191.269 564.733 195.136 562.6C199.003 560.467 203.503 559.4 208.636 559.4ZM208.736 570C205.803 570 203.403 570.933 201.536 572.8C199.669 574.667 198.569 577.567 198.236 581.5H219.136C219.069 578.233 218.169 575.5 216.436 573.3C214.769 571.1 212.203 570 208.736 570ZM276.218 559.4C282.085 559.4 286.785 561 290.318 564.2C293.851 567.333 295.618 572.4 295.618 579.4V615H280.718V583.1C280.718 579.167 280.018 576.233 278.618 574.3C277.218 572.3 274.985 571.3 271.918 571.3C267.385 571.3 264.285 572.867 262.618 576C260.951 579.067 260.118 583.5 260.118 589.3V615H245.218V560.4H256.618L258.618 567.4H259.418C261.151 564.6 263.518 562.567 266.518 561.3C269.585 560.033 272.818 559.4 276.218 559.4ZM333.941 604.1C335.607 604.1 337.207 603.967 338.741 603.7C340.274 603.367 341.807 602.933 343.341 602.4V613.5C341.741 614.233 339.741 614.833 337.341 615.3C335.007 615.767 332.441 616 329.641 616C326.374 616 323.441 615.467 320.841 614.4C318.307 613.333 316.274 611.5 314.741 608.9C313.274 606.3 312.541 602.633 312.541 597.9V571.6H305.441V565.3L313.641 560.3L317.941 548.8H327.441V560.4H342.741V571.6H327.441V597.9C327.441 599.967 328.041 601.533 329.241 602.6C330.441 603.6 332.007 604.1 333.941 604.1ZM403.9 587.6C403.9 596.667 401.5 603.667 396.7 608.6C391.967 613.533 385.5 616 377.3 616C372.233 616 367.7 614.9 363.7 612.7C359.767 610.5 356.667 607.3 354.4 603.1C352.133 598.833 351 593.667 351 587.6C351 578.533 353.367 571.567 358.1 566.7C362.833 561.833 369.333 559.4 377.6 559.4C382.733 559.4 387.267 560.5 391.2 562.7C395.133 564.9 398.233 568.1 400.5 572.3C402.767 576.5 403.9 581.6 403.9 587.6ZM366.2 587.6C366.2 593 367.067 597.1 368.8 599.9C370.6 602.633 373.5 604 377.5 604C381.433 604 384.267 602.633 386 599.9C387.8 597.1 388.7 593 388.7 587.6C388.7 582.2 387.8 578.167 386 575.5C384.267 572.767 381.4 571.4 377.4 571.4C373.467 571.4 370.6 572.767 368.8 575.5C367.067 578.167 366.2 582.2 366.2 587.6ZM446.714 559.4C447.447 559.4 448.314 559.433 449.314 559.5C450.314 559.567 451.114 559.667 451.714 559.8L450.614 573.8C450.081 573.667 449.381 573.567 448.514 573.5C447.647 573.367 446.881 573.3 446.214 573.3C443.681 573.3 441.247 573.767 438.914 574.7C436.581 575.567 434.681 577 433.214 579C431.814 581 431.114 583.733 431.114 587.2V615H416.214V560.4H427.514L429.714 569.6H430.414C432.014 566.8 434.214 564.4 437.014 562.4C439.814 560.4 443.047 559.4 446.714 559.4Z" fill="black"/>
<path d="M503.924 615H462.824V543.6H503.924V556H477.924V571.7H502.124V584.1H477.924V602.5H503.924V615ZM577.981 578.6C577.981 590.667 574.548 599.767 567.681 605.9C560.815 611.967 551.248 615 538.981 615H518.781V543.6H541.181C548.648 543.6 555.115 544.933 560.581 547.6C566.115 550.267 570.381 554.2 573.381 559.4C576.448 564.6 577.981 571 577.981 578.6ZM562.281 579C562.281 571.133 560.548 565.333 557.081 561.6C553.615 557.867 548.581 556 541.981 556H533.881V602.5H540.381C554.981 602.5 562.281 594.667 562.281 579Z" fill="#59AD26"/>
<defs>
<filter id="filter0_i_1917_1907" x="170.223" y="134.769" width="392.935" height="366.678" filterUnits="userSpaceOnUse" color-interpolation-filters="sRGB">
<feFlood flood-opacity="0" result="BackgroundImageFix"/>
<feBlend mode="normal" in="SourceGraphic" in2="BackgroundImageFix" result="shape"/>
<feColorMatrix in="SourceAlpha" type="matrix" values="0 0 0 0 0 0 0 0 0 0 0 0 0 0 0 0 0 0 127 0" result="hardAlpha"/>
<feOffset dy="4"/>
<feGaussianBlur stdDeviation="2"/>
<feComposite in2="hardAlpha" operator="arithmetic" k2="-1" k3="1"/>
<feColorMatrix type="matrix" values="0 0 0 0 0 0 0 0 0 0 0 0 0 0 0 0 0 0 0.25 0"/>
<feBlend mode="normal" in2="shape" result="effect1_innerShadow_1917_1907"/>
</filter>
<filter id="filter1_i_1917_1907" x="107.599" y="48.8831" width="366.758" height="391.868" filterUnits="userSpaceOnUse" color-interpolation-filters="sRGB">
<feFlood flood-opacity="0" result="BackgroundImageFix"/>
<feBlend mode="normal" in="SourceGraphic" in2="BackgroundImageFix" result="shape"/>
<feColorMatrix in="SourceAlpha" type="matrix" values="0 0 0 0 0 0 0 0 0 0 0 0 0 0 0 0 0 0 127 0" result="hardAlpha"/>
<feOffset dy="4"/>
<feGaussianBlur stdDeviation="2"/>
<feComposite in2="hardAlpha" operator="arithmetic" k2="-1" k3="1"/>
<feColorMatrix type="matrix" values="0 0 0 0 0 0 0 0 0 0 0 0 0 0 0 0 0 0 0.25 0"/>
<feBlend mode="normal" in2="shape" result="effect1_innerShadow_1917_1907"/>
</filter>
<filter id="filter2_i_1917_1907" x="141.401" y="73.4868" width="332.638" height="355.785" filterUnits="userSpaceOnUse" color-interpolation-filters="sRGB">
<feFlood flood-opacity="0" result="BackgroundImageFix"/>
<feBlend mode="normal" in="SourceGraphic" in2="BackgroundImageFix" result="shape"/>
<feColorMatrix in="SourceAlpha" type="matrix" values="0 0 0 0 0 0 0 0 0 0 0 0 0 0 0 0 0 0 127 0" result="hardAlpha"/>
<feOffset dy="4"/>
<feGaussianBlur stdDeviation="2"/>
<feComposite in2="hardAlpha" operator="arithmetic" k2="-1" k3="1"/>
<feColorMatrix type="matrix" values="0 0 0 0 0 0 0 0 0 0 0 0 0 0 0 0 0 0 0.25 0"/>
<feBlend mode="normal" in2="shape" result="effect1_innerShadow_1917_1907"/>
</filter>
<filter id="filter3_i_1917_1907" x="203.081" y="118.907" width="332.64" height="355.788" filterUnits="userSpaceOnUse" color-interpolation-filters="sRGB">
<feFlood flood-opacity="0" result="BackgroundImageFix"/>
<feBlend mode="normal" in="SourceGraphic" in2="BackgroundImageFix" result="shape"/>
<feColorMatrix in="SourceAlpha" type="matrix" values="0 0 0 0 0 0 0 0 0 0 0 0 0 0 0 0 0 0 127 0" result="hardAlpha"/>
<feOffset dy="4"/>
<feGaussianBlur stdDeviation="2"/>
<feComposite in2="hardAlpha" operator="arithmetic" k2="-1" k3="1"/>
<feColorMatrix type="matrix" values="0 0 0 0 0 0 0 0 0 0 0 0 0 0 0 0 0 0 0.25 0"/>
<feBlend mode="normal" in2="shape" result="effect1_innerShadow_1917_1907"/>
</filter>
<filter id="filter4_d_1917_1907" x="206.749" y="145.17" width="267.495" height="255.174" filterUnits="userSpaceOnUse" color-interpolation-filters="sRGB">
<feFlood flood-opacity="0" result="BackgroundImageFix"/>
<feColorMatrix in="SourceAlpha" type="matrix" values="0 0 0 0 0 0 0 0 0 0 0 0 0 0 0 0 0 0 127 0" result="hardAlpha"/>
<feOffset dx="5" dy="5"/>
<feGaussianBlur stdDeviation="7.5"/>
<feColorMatrix type="matrix" values="0 0 0 0 0.501961 0 0 0 0 0.501961 0 0 0 0 0.501961 0 0 0 0.5 0"/>
<feBlend mode="normal" in2="BackgroundImageFix" result="effect1_dropShadow_1917_1907"/>
<feBlend mode="normal" in="SourceGraphic" in2="effect1_dropShadow_1917_1907" result="shape"/>
</filter>
<filter id="filter5_ii_1917_1907" x="315.875" y="155.17" width="140.37" height="229.174" filterUnits="userSpaceOnUse" color-interpolation-filters="sRGB">
<feFlood flood-opacity="0" result="BackgroundImageFix"/>
<feBlend mode="normal" in="SourceGraphic" in2="BackgroundImageFix" result="shape"/>
<feColorMatrix in="SourceAlpha" type="matrix" values="0 0 0 0 0 0 0 0 0 0 0 0 0 0 0 0 0 0 127 0" result="hardAlpha"/>
<feOffset dx="2" dy="4"/>
<feGaussianBlur stdDeviation="5"/>
<feComposite in2="hardAlpha" operator="arithmetic" k2="-1" k3="1"/>
<feColorMatrix type="matrix" values="0 0 0 0 0 0 0 0 0 0 0 0 0 0 0 0 0 0 0.35 0"/>
<feBlend mode="normal" in2="shape" result="effect1_innerShadow_1917_1907"/>
<feColorMatrix in="SourceAlpha" type="matrix" values="0 0 0 0 0 0 0 0 0 0 0 0 0 0 0 0 0 0 127 0" result="hardAlpha"/>
<feOffset dy="4"/>
<feGaussianBlur stdDeviation="2"/>
<feComposite in2="hardAlpha" operator="arithmetic" k2="-1" k3="1"/>
<feColorMatrix type="matrix" values="0 0 0 0 1 0 0 0 0 1 0 0 0 0 1 0 0 0 0.25 0"/>
<feBlend mode="normal" in2="effect1_innerShadow_1917_1907" result="effect2_innerShadow_1917_1907"/>
</filter>
<filter id="filter6_ii_1917_1907" x="216.749" y="155.17" width="152.848" height="227.865" filterUnits="userSpaceOnUse" color-interpolation-filters="sRGB">
<feFlood flood-opacity="0" result="BackgroundImageFix"/>
<feBlend mode="normal" in="SourceGraphic" in2="BackgroundImageFix" result="shape"/>
<feColorMatrix in="SourceAlpha" type="matrix" values="0 0 0 0 0 0 0 0 0 0 0 0 0 0 0 0 0 0 127 0" result="hardAlpha"/>
<feOffset dy="4"/>
<feGaussianBlur stdDeviation="2"/>
<feComposite in2="hardAlpha" operator="arithmetic" k2="-1" k3="1"/>
<feColorMatrix type="matrix" values="0 0 0 0 0 0 0 0 0 0 0 0 0 0 0 0 0 0 0.25 0"/>
<feBlend mode="normal" in2="shape" result="effect1_innerShadow_1917_1907"/>
<feColorMatrix in="SourceAlpha" type="matrix" values="0 0 0 0 0 0 0 0 0 0 0 0 0 0 0 0 0 0 127 0" result="hardAlpha"/>
<feOffset dx="2" dy="4"/>
<feGaussianBlur stdDeviation="5"/>
<feComposite in2="hardAlpha" operator="arithmetic" k2="-1" k3="1"/>
<feColorMatrix type="matrix" values="0 0 0 0 0.9625 0 0 0 0 0.940042 0 0 0 0 0.940042 0 0 0 0.35 0"/>
<feBlend mode="normal" in2="effect1_innerShadow_1917_1907" result="effect2_innerShadow_1917_1907"/>
</filter>
<filter id="filter7_i_1917_1907" x="301.052" y="278.271" width="8.07605" height="16.1538" filterUnits="userSpaceOnUse" color-interpolation-filters="sRGB">
<feFlood flood-opacity="0" result="BackgroundImageFix"/>
<feBlend mode="normal" in="SourceGraphic" in2="BackgroundImageFix" result="shape"/>
<feColorMatrix in="SourceAlpha" type="matrix" values="0 0 0 0 0 0 0 0 0 0 0 0 0 0 0 0 0 0 127 0" result="hardAlpha"/>
<feOffset dy="4"/>
<feGaussianBlur stdDeviation="5"/>
<feComposite in2="hardAlpha" operator="arithmetic" k2="-1" k3="1"/>
<feColorMatrix type="matrix" values="0 0 0 0 0 0 0 0 0 0 0 0 0 0 0 0 0 0 0.35 0"/>
<feBlend mode="normal" in2="shape" result="effect1_innerShadow_1917_1907"/>
</filter>
<filter id="filter8_i_1917_1907" x="309.447" y="280.411" width="12.1919" height="21.542" filterUnits="userSpaceOnUse" color-interpolation-filters="sRGB">
<feFlood flood-opacity="0" result="BackgroundImageFix"/>
<feBlend mode="normal" in="SourceGraphic" in2="BackgroundImageFix" result="shape"/>
<feColorMatrix in="SourceAlpha" type="matrix" values="0 0 0 0 0 0 0 0 0 0 0 0 0 0 0 0 0 0 127 0" result="hardAlpha"/>
<feOffset dy="4"/>
<feGaussianBlur stdDeviation="5"/>
<feComposite in2="hardAlpha" operator="arithmetic" k2="-1" k3="1"/>
<feColorMatrix type="matrix" values="0 0 0 0 0 0 0 0 0 0 0 0 0 0 0 0 0 0 0.35 0"/>
<feBlend mode="normal" in2="shape" result="effect1_innerShadow_1917_1907"/>
</filter>
<filter id="filter9_i_1917_1907" x="318.443" y="286.057" width="12.1919" height="21.542" filterUnits="userSpaceOnUse" color-interpolation-filters="sRGB">
<feFlood flood-opacity="0" result="BackgroundImageFix"/>
<feBlend mode="normal" in="SourceGraphic" in2="BackgroundImageFix" result="shape"/>
<feColorMatrix in="SourceAlpha" type="matrix" values="0 0 0 0 0 0 0 0 0 0 0 0 0 0 0 0 0 0 127 0" result="hardAlpha"/>
<feOffset dy="4"/>
<feGaussianBlur stdDeviation="5"/>
<feComposite in2="hardAlpha" operator="arithmetic" k2="-1" k3="1"/>
<feColorMatrix type="matrix" values="0 0 0 0 0 0 0 0 0 0 0 0 0 0 0 0 0 0 0.35 0"/>
<feBlend mode="normal" in2="shape" result="effect1_innerShadow_1917_1907"/>
</filter>
<filter id="filter10_i_1917_1907" x="327.544" y="293.521" width="9.96558" height="18.3396" filterUnits="userSpaceOnUse" color-interpolation-filters="sRGB">
<feFlood flood-opacity="0" result="BackgroundImageFix"/>
<feBlend mode="normal" in="SourceGraphic" in2="BackgroundImageFix" result="shape"/>
<feColorMatrix in="SourceAlpha" type="matrix" values="0 0 0 0 0 0 0 0 0 0 0 0 0 0 0 0 0 0 127 0" result="hardAlpha"/>
<feOffset dy="4"/>
<feGaussianBlur stdDeviation="5"/>
<feComposite in2="hardAlpha" operator="arithmetic" k2="-1" k3="1"/>
<feColorMatrix type="matrix" values="0 0 0 0 0 0 0 0 0 0 0 0 0 0 0 0 0 0 0.35 0"/>
<feBlend mode="normal" in2="shape" result="effect1_innerShadow_1917_1907"/>
</filter>
</defs>
</svg>
