<svg width="305" height="269" viewBox="0 0 305 269" fill="none" xmlns="http://www.w3.org/2000/svg">
<mask id="mask0_1478_8754" style="mask-type:alpha" maskUnits="userSpaceOnUse" x="0" y="193" width="118" height="56">
<path d="M0 193.37H117.777V248.561H0V193.37Z" fill="white"/>
</mask>
<g mask="url(#mask0_1478_8754)">
<path fill-rule="evenodd" clip-rule="evenodd" d="M51.7937 238.477C40.8681 241.457 29.8264 233.802 30.525 223.404C30.5408 223.161 30.5614 222.923 30.5866 222.689C31.3086 215.899 -3.14443 207.875 0.233118 199.234C3.61126 190.593 34.6862 189.976 51.5745 207.875C68.4628 225.775 77.6261 218.676 85.8798 217.288C94.1335 215.899 102.916 220.219 106.293 228.244C109.671 236.267 105.618 244.908 117.778 246.143C117.778 246.143 98.1868 253.549 79.947 242.439C68.927 235.727 58.4005 236.675 51.7937 238.477Z" fill="#A44639"/>
</g>
<path d="M10.0801 199.919C10.0801 199.919 35.453 212.468 43.5362 218.071C51.6199 223.674 59.1463 229.023 73.3622 229.277C82.7458 229.445 90.6725 234.718 94.9766 238.283C99.3347 241.893 104.59 244.52 110.33 245.693C112.825 246.203 115.415 246.45 117.777 246.143" stroke="#DE9388" stroke-width="1.54" stroke-linecap="round"/>
<path d="M26.4412 200.845L30.4394 210.426L18.1348 208.434" stroke="#DE9388" stroke-width="1.54" stroke-linecap="round"/>
<path fill-rule="evenodd" clip-rule="evenodd" d="M34.748 223.098L49.7996 222.268L34.748 223.098Z" stroke="#DE9388" stroke-width="1.54" stroke-linecap="round"/>
<path fill-rule="evenodd" clip-rule="evenodd" d="M41.0469 206.865L43.5354 218.071L41.0469 206.865Z" stroke="#DE9388" stroke-width="1.54" stroke-linecap="round"/>
<path d="M52.9901 217.594L62.4874 227.773H45.3418" stroke="#DE9388" stroke-width="1.54" stroke-linecap="round"/>
<path d="M69.5918 222.683L80.5672 230.389L70.8747 233.316" stroke="#DE9388" stroke-width="1.54" stroke-linecap="round"/>
<path fill-rule="evenodd" clip-rule="evenodd" d="M86.8559 190.584C86.8559 190.584 110.975 165.48 92.9762 157.311C74.9771 149.142 77.9101 185.658 86.8559 190.584Z" fill="#C54432" fill-opacity="0.62"/>
<path fill-rule="evenodd" clip-rule="evenodd" d="M103.125 213.335C103.125 213.335 119.881 192.488 106.861 186.834C93.8424 181.179 97.0949 206.117 103.125 213.335Z" fill="#FFD2CC"/>
<path fill-rule="evenodd" clip-rule="evenodd" d="M70.2935 221.398C74.2723 224.691 83.3742 227.986 101.013 215.604C101.013 215.604 86.0322 206.388 76.5204 209.466C72.681 210.709 70.5085 212.4 69.2816 213.975C67.5129 216.248 67.9708 219.476 70.2935 221.398Z" fill="#FF604A"/>
<path fill-rule="evenodd" clip-rule="evenodd" d="M82.5986 193.82C82.5986 193.82 66.447 184.826 55.84 186.545C49.8062 187.523 46.1849 190.066 44.1852 192.076C42.0565 194.215 41.4645 197.424 42.9757 200.077C44.5892 202.911 48.6962 205.507 58.8522 203.796C78.0955 200.557 82.5986 193.82 82.5986 193.82Z" fill="#FFD2CC"/>
<path fill-rule="evenodd" clip-rule="evenodd" d="M69.853 178.908C69.853 178.908 66.2325 162.388 58.1193 155.71C50.0071 149.032 42.8044 149.688 39.6365 153.255C36.4687 156.821 35.4167 164.287 42.6573 170.496C49.8964 176.705 69.853 178.908 69.853 178.908Z" fill="#E55A28"/>
<path d="M106.423 222.667C106.423 222.667 76.5401 176.782 45.6256 157.585" stroke="#9F3223" stroke-width="2.2" stroke-linecap="round"/>
<path d="M91.6562 165.713C91.6562 165.713 85.2552 180.669 84.6251 193.577C84.6251 193.577 68.9377 190.197 52.0539 195.179" stroke="#9F3223" stroke-width="2.2" stroke-linecap="round"/>
<path d="M73.9766 216.758C83.5288 214.158 101.185 215.648 101.185 215.648C101.185 215.648 106.115 205.353 105.057 198.479" stroke="#9F3223" stroke-width="2.2" stroke-linecap="round"/>
<mask id="mask1_1478_8754" style="mask-type:alpha" maskUnits="userSpaceOnUse" x="161" y="181" width="144" height="68">
<path d="M304.639 181.628H161.986V248.476H304.639V181.628Z" fill="white"/>
</mask>
<g mask="url(#mask1_1478_8754)">
<path fill-rule="evenodd" clip-rule="evenodd" d="M241.906 236.263C255.139 239.871 268.513 230.601 267.667 218.006C267.647 217.711 267.623 217.423 267.592 217.139C266.717 208.916 308.447 199.197 304.356 188.731C300.265 178.265 262.627 177.517 242.171 199.197C221.716 220.877 210.617 212.279 200.62 210.598C190.623 208.916 179.986 214.149 175.895 223.868C171.804 233.586 176.714 244.052 161.986 245.547C161.986 245.547 185.714 254.518 207.806 241.061C221.154 232.931 233.904 234.08 241.906 236.263Z" fill="#A44639"/>
</g>
<path d="M292.43 189.561C292.43 189.561 261.698 204.761 251.907 211.546C242.116 218.333 233 224.811 215.782 225.12C204.416 225.323 194.816 231.71 189.602 236.028C184.324 240.399 177.959 243.582 171.006 245.002C167.984 245.62 164.848 245.919 161.986 245.547" stroke="#DE9388" stroke-width="1.54" stroke-linecap="round"/>
<path d="M272.613 190.682L267.77 202.286L282.674 199.874" stroke="#DE9388" stroke-width="1.54" stroke-linecap="round"/>
<path fill-rule="evenodd" clip-rule="evenodd" d="M262.553 217.636L244.322 216.63L262.553 217.636Z" stroke="#DE9388" stroke-width="1.54" stroke-linecap="round"/>
<path fill-rule="evenodd" clip-rule="evenodd" d="M254.922 197.973L251.908 211.547L254.922 197.973Z" stroke="#DE9388" stroke-width="1.54" stroke-linecap="round"/>
<path d="M240.457 210.968L228.954 223.297H249.721" stroke="#DE9388" stroke-width="1.54" stroke-linecap="round"/>
<path d="M220.348 217.133L207.054 226.466L218.794 230.011" stroke="#7D7BA2" stroke-width="1.54" stroke-linecap="round"/>
<path fill-rule="evenodd" clip-rule="evenodd" d="M222.142 178.253C222.142 178.253 192.929 147.848 214.729 137.953C236.53 128.06 232.977 172.288 222.142 178.253Z" fill="#C54432" fill-opacity="0.62"/>
<path fill-rule="evenodd" clip-rule="evenodd" d="M202.436 205.81C202.436 205.81 182.142 180.559 197.911 173.712C213.68 166.862 209.74 197.068 202.436 205.81Z" fill="#FFD2CC"/>
<path fill-rule="evenodd" clip-rule="evenodd" d="M242.203 215.575C237.384 219.564 226.36 223.555 204.995 208.559C204.995 208.559 223.141 197.396 234.661 201.124C239.312 202.629 241.943 204.677 243.429 206.585C245.571 209.338 245.017 213.248 242.203 215.575Z" fill="#FF604A"/>
<path fill-rule="evenodd" clip-rule="evenodd" d="M227.299 182.173C227.299 182.173 246.862 171.279 259.709 173.362C267.017 174.546 271.403 177.626 273.825 180.061C276.403 182.651 277.121 186.538 275.29 189.751C273.336 193.184 268.361 196.328 256.06 194.257C232.753 190.333 227.299 182.173 227.299 182.173Z" fill="#FFD2CC"/>
<path fill-rule="evenodd" clip-rule="evenodd" d="M242.737 164.112C242.737 164.112 247.122 144.102 256.949 136.014C266.774 127.926 275.498 128.72 279.335 133.04C283.172 137.36 284.446 146.403 275.676 153.923C266.908 161.443 242.737 164.112 242.737 164.112Z" fill="#E55A28"/>
<path d="M198.441 217.113C198.441 217.113 234.635 161.536 272.079 138.285" stroke="#9F3223" stroke-width="2.2" stroke-linecap="round"/>
<path d="M216.328 148.129C216.328 148.129 224.081 166.244 224.844 181.879C224.844 181.879 243.845 177.785 264.295 183.819" stroke="#9F3223" stroke-width="2.2" stroke-linecap="round"/>
<path d="M237.742 209.957C226.172 206.807 204.787 208.612 204.787 208.612C204.787 208.612 198.815 196.142 200.098 187.816" stroke="#9F3223" stroke-width="2.2" stroke-linecap="round"/>
<g filter="url(#filter0_d_1478_8754)">
<path d="M202.391 12H120.152C103.433 12 89.8789 24.3836 89.8789 39.6596V224.971C89.8789 240.247 103.433 252.631 120.152 252.631H202.391C219.11 252.631 232.664 240.247 232.664 224.971V39.6596C232.664 24.3836 219.11 12 202.391 12Z" fill="black"/>
</g>
<path d="M202.391 12H120.152C103.433 12 89.8789 24.3836 89.8789 39.6596V224.971C89.8789 240.247 103.433 252.631 120.152 252.631H202.391C219.11 252.631 232.664 240.247 232.664 224.971V39.6596C232.664 24.3836 219.11 12 202.391 12Z" fill="white"/>
<g filter="url(#filter1_i_1478_8754)">
<path d="M202.391 12H120.152C103.433 12 89.8789 24.3836 89.8789 39.6596V224.971C89.8789 240.247 103.433 252.631 120.152 252.631H202.391C219.11 252.631 232.664 240.247 232.664 224.971V39.6596C232.664 24.3836 219.11 12 202.391 12Z" fill="black"/>
</g>
<path d="M202.202 12.1729H120.341C103.622 12.1729 90.0684 24.5565 90.0684 39.8324V224.798C90.0684 240.074 103.622 252.458 120.341 252.458H202.202C218.921 252.458 232.475 240.074 232.475 224.798V39.8324C232.475 24.5565 218.921 12.1729 202.202 12.1729Z" stroke="#DCDCDC" stroke-width="0.5"/>
<path d="M198.925 14.9351H123.621C106.901 14.9351 93.3477 27.3187 93.3477 42.5946V221.967C93.3477 237.243 106.901 249.627 123.621 249.627H198.925C215.644 249.627 229.198 237.243 229.198 221.967V42.5946C229.198 27.3187 215.644 14.9351 198.925 14.9351Z" fill="white" stroke="#DCDCDC" stroke-width="0.5"/>
<path opacity="0.346749" d="M160.976 155.387C190.955 155.387 215.257 133.183 215.257 105.792C215.257 78.4015 190.955 56.197 160.976 56.197C130.998 56.197 106.695 78.4015 106.695 105.792C106.695 133.183 130.998 155.387 160.976 155.387Z" fill="#D8D8D8"/>
<g filter="url(#filter2_d_1478_8754)">
<path d="M160.977 144.053C184.104 144.053 202.853 126.923 202.853 105.792C202.853 84.6613 184.104 67.5315 160.977 67.5315C137.85 67.5315 119.102 84.6613 119.102 105.792C119.102 126.923 137.85 144.053 160.977 144.053Z" fill="black"/>
</g>
<path d="M160.626 144.149C183.753 144.149 202.501 127.019 202.501 105.888C202.501 84.7573 183.753 67.6274 160.626 67.6274C137.498 67.6274 118.75 84.7573 118.75 105.888C118.75 127.019 137.498 144.149 160.626 144.149Z" fill="url(#paint0_linear_1478_8754)"/>
<g opacity="0.543285">
<path d="M177.453 185.702H144.859C136.653 185.702 130 190.627 130 196.702C130 202.777 136.653 207.702 144.859 207.702H177.453C185.659 207.702 192.312 202.777 192.312 196.702C192.312 190.627 185.659 185.702 177.453 185.702Z" stroke="#6D7278"/>
<path d="M158.575 193.134C159.695 193.134 160.511 193.354 161.023 193.794C161.535 194.234 161.791 194.854 161.791 195.654C161.791 196.126 161.683 196.57 161.467 196.986C161.259 197.394 160.903 197.726 160.399 197.982C159.903 198.238 159.227 198.366 158.371 198.366H157.387V201.702H156.307V193.134H158.575ZM158.479 194.058H157.387V197.442H158.251C159.067 197.442 159.675 197.31 160.075 197.046C160.475 196.782 160.675 196.334 160.675 195.702C160.675 195.15 160.495 194.738 160.135 194.466C159.783 194.194 159.231 194.058 158.479 194.058ZM164.484 201.702H163.428V192.582H164.484V201.702ZM168.958 195.162C169.742 195.162 170.322 195.334 170.698 195.678C171.074 196.022 171.262 196.57 171.262 197.322V201.702H170.494L170.29 200.79H170.242C169.962 201.142 169.666 201.402 169.354 201.57C169.042 201.738 168.618 201.822 168.082 201.822C167.498 201.822 167.014 201.67 166.63 201.366C166.246 201.054 166.054 200.57 166.054 199.914C166.054 199.274 166.306 198.782 166.81 198.438C167.314 198.086 168.09 197.894 169.138 197.862L170.23 197.826V197.442C170.23 196.906 170.114 196.534 169.882 196.326C169.65 196.118 169.322 196.014 168.898 196.014C168.562 196.014 168.242 196.066 167.938 196.17C167.634 196.266 167.35 196.378 167.086 196.506L166.762 195.714C167.042 195.562 167.374 195.434 167.758 195.33C168.142 195.218 168.542 195.162 168.958 195.162ZM170.218 198.558L169.27 198.594C168.47 198.626 167.914 198.754 167.602 198.978C167.298 199.202 167.146 199.518 167.146 199.926C167.146 200.286 167.254 200.55 167.47 200.718C167.694 200.886 167.978 200.97 168.322 200.97C168.858 200.97 169.306 200.822 169.666 200.526C170.034 200.222 170.218 199.758 170.218 199.134V198.558ZM172.241 195.27H173.369L174.761 198.93C174.881 199.258 174.989 199.566 175.085 199.854C175.181 200.142 175.253 200.418 175.301 200.682H175.349C175.397 200.482 175.473 200.222 175.577 199.902C175.681 199.574 175.789 199.246 175.901 198.918L177.209 195.27H178.349L175.577 202.59C175.345 203.198 175.053 203.682 174.701 204.042C174.349 204.402 173.861 204.582 173.237 204.582C173.045 204.582 172.877 204.57 172.733 204.546C172.589 204.53 172.465 204.51 172.361 204.486V203.646C172.449 203.662 172.553 203.678 172.673 203.694C172.801 203.71 172.933 203.718 173.069 203.718C173.437 203.718 173.733 203.614 173.957 203.406C174.181 203.198 174.361 202.922 174.497 202.578L174.833 201.726L172.241 195.27Z" fill="#6D7278"/>
<path fill-rule="evenodd" clip-rule="evenodd" d="M142.676 190.946C139.195 190.946 136.369 193.527 136.369 196.708C136.369 199.889 139.195 202.471 142.676 202.471C146.157 202.471 148.983 199.889 148.983 196.708C148.983 193.527 146.157 190.946 142.676 190.946ZM141.415 199.301V194.115L145.199 196.708L141.415 199.301Z" fill="#6D7278"/>
</g>
<path d="M161.696 77.5111C174.007 77.8947 183.672 88.1448 183.288 100.404C182.903 112.664 172.613 122.291 160.302 121.908C147.993 121.524 138.325 111.274 138.71 99.0152C139.095 86.7565 149.387 77.1275 161.696 77.5111Z" fill="#B13E33"/>
<path d="M176.394 87.3264C179.529 91.1448 181.262 96.1237 180.861 101.427C180.034 112.359 170.469 120.58 159.536 119.754C154.233 119.352 149.571 116.891 146.268 113.218C149.594 117.271 154.499 120.016 160.129 120.441C171.06 121.268 180.624 113.048 181.451 102.115C181.878 96.4866 179.901 91.2252 176.394 87.3264Z" fill="#59B844"/>
<path d="M173.543 84.3382C169.666 81.2763 164.656 79.6366 159.361 80.1377C148.447 81.1698 140.407 90.8887 141.439 101.803C141.94 107.099 144.488 111.713 148.223 114.947C144.108 111.697 141.272 106.844 140.74 101.224C139.708 90.3093 147.746 80.5924 158.662 79.5602C164.281 79.0282 169.58 80.9052 173.543 84.3382Z" fill="#59B844"/>
<path d="M173.515 86.1359C169.999 83.3588 165.454 81.8717 160.652 82.3262C150.753 83.2623 143.461 92.0769 144.397 101.976C144.851 106.779 147.162 110.964 150.55 113.897C146.818 110.95 144.245 106.548 143.763 101.451C142.826 91.5518 150.117 82.7386 160.018 81.8024C165.114 81.3199 169.921 83.0223 173.515 86.1359Z" fill="#3F8330"/>
<path d="M149.213 113.637C152.729 116.414 157.274 117.901 162.076 117.447C171.975 116.51 179.267 107.696 178.331 97.7966C177.876 92.9939 175.565 88.8088 172.178 85.8757C175.91 88.8228 178.482 93.2249 178.965 98.3218C179.901 108.221 172.61 117.034 162.71 117.971C157.613 118.453 152.807 116.751 149.213 113.637Z" fill="#3F8330"/>
<path d="M160.026 95.9581C159.865 96.5985 159.495 97.4991 159.33 97.869C159.711 98.8399 160.357 97.8778 160.632 97.2752L160.723 97.0684L160.797 97.2752C160.974 97.2752 161.409 97.3011 161.731 97.4044C162.318 97.7141 163.112 98.4804 163.436 98.8245L163.766 98.9019L163.528 99.0312L164.078 100.374L165.086 99.3409L165.434 99.8833L168.184 96.3197V109.788H171.74V89.1924H168.147L163.198 95.8548L164.078 97.6627C163.845 97.4388 163.319 96.9241 163.069 96.6553C162.673 96.7173 162.012 96.1477 161.731 95.8548C161.285 95.8895 160.32 95.9581 160.026 95.9581Z" fill="white"/>
<path d="M159.623 96.3712C158.772 96.7847 158.633 96.6294 158.67 96.5005L158.963 95.8548L154.069 89.1924H150.439V109.668H154.069V96.3712L156.763 99.8833L157.955 97.8431C157.826 98.2821 157.552 99.2535 157.478 99.6251C158.08 99.8318 158.645 100.624 158.853 100.994C158.908 100.899 159.069 100.648 159.275 100.4C159.861 100.09 159.916 100.968 160.045 101.097C160.528 100.766 160.723 101.321 160.759 101.639C160.827 101.579 160.994 101.495 161.126 101.639C161.511 102.027 161.364 102.44 161.346 102.75C161.669 103.039 161.762 102.715 161.768 102.517C161.609 102.165 161.269 101.428 161.181 101.304C161.093 101.18 161.218 101.149 161.291 101.149C161.426 101.407 161.753 102.042 161.988 102.517C162.457 102.807 162.587 102.328 162.592 102.052C162.391 101.648 161.962 100.792 161.859 100.606C161.757 100.421 161.902 100.426 161.988 100.452C162.122 100.735 162.475 101.454 162.813 102.052C163.267 102.197 163.356 101.786 163.344 101.562C163.094 101.089 162.571 100.095 162.483 99.9092C162.394 99.7234 162.519 99.6769 162.592 99.6769C162.788 100.081 163.245 100.973 163.509 101.304C163.905 101.386 163.98 100.959 163.967 100.735C163.851 100.426 163.531 99.6095 163.179 98.8245C162.519 98.2256 161.914 97.8176 161.694 97.6882L160.778 97.5074C160.674 97.6798 160.382 98.1117 160.045 98.4628C159.623 98.9019 159 98.2046 159.073 98.0238C159.788 96.3971 159.623 96.6294 159.623 96.3712Z" fill="white"/>
<g filter="url(#filter3_d_1478_8754)">
<path d="M158.065 101.381C157.889 100.989 158.113 100.598 158.248 100.452C158.482 100.617 158.663 101.037 158.724 101.226C158.578 101.441 158.241 101.774 158.065 101.381Z" fill="white"/>
</g>
<g filter="url(#filter4_d_1478_8754)">
<path d="M159.759 101.546C159.895 101.326 159.871 100.986 159.708 100.787C159.544 100.587 159.302 100.604 159.167 100.824L158.842 101.353C158.707 101.573 158.73 101.913 158.894 102.112C159.057 102.312 159.299 102.295 159.434 102.075L159.759 101.546Z" fill="white"/>
</g>
<g filter="url(#filter5_d_1478_8754)">
<path d="M160.566 102.062C160.701 101.843 160.678 101.503 160.514 101.303C160.351 101.104 160.108 101.12 159.973 101.34L159.648 101.87C159.513 102.089 159.537 102.429 159.7 102.629C159.864 102.828 160.106 102.812 160.241 102.592L160.566 102.062Z" fill="white"/>
</g>
<g filter="url(#filter6_d_1478_8754)">
<path d="M161.199 102.581C161.309 102.401 161.29 102.123 161.157 101.96C161.023 101.797 160.825 101.811 160.715 101.991L160.449 102.424C160.338 102.603 160.357 102.881 160.491 103.044C160.625 103.207 160.823 103.194 160.933 103.014L161.199 102.581Z" fill="white"/>
</g>
<path d="M142.048 131.25L140.506 126.128H140.47C140.476 126.25 140.485 126.433 140.497 126.677C140.509 126.921 140.521 127.183 140.533 127.463C140.545 127.744 140.551 127.994 140.551 128.213V131.25H139.34V124.719H141.187L142.703 129.713H142.73L144.335 124.719H146.183V131.25H144.918V128.159C144.918 127.951 144.921 127.713 144.927 127.445C144.939 127.177 144.948 126.924 144.954 126.686C144.966 126.442 144.975 126.259 144.981 126.137H144.945L143.295 131.25H142.048ZM149.711 126.165C150.386 126.165 150.922 126.363 151.316 126.759C151.711 127.149 151.908 127.707 151.908 128.433V129.091H148.751C148.763 129.476 148.874 129.777 149.083 129.997C149.298 130.216 149.594 130.326 149.971 130.326C150.282 130.326 150.566 130.296 150.823 130.235C151.086 130.168 151.355 130.067 151.63 129.933V130.985C151.385 131.107 151.131 131.195 150.868 131.25C150.605 131.311 150.285 131.341 149.908 131.341C149.418 131.341 148.984 131.25 148.608 131.067C148.231 130.878 147.935 130.598 147.72 130.226C147.505 129.848 147.397 129.369 147.397 128.79C147.397 128.21 147.493 127.726 147.684 127.335C147.881 126.945 148.153 126.652 148.5 126.457C148.847 126.262 149.25 126.165 149.711 126.165ZM149.72 127.134C149.457 127.134 149.241 127.219 149.074 127.39C148.907 127.561 148.808 127.826 148.778 128.186H150.652C150.646 127.887 150.566 127.637 150.41 127.436C150.261 127.235 150.031 127.134 149.72 127.134ZM155.772 126.165C156.298 126.165 156.72 126.311 157.037 126.604C157.353 126.89 157.512 127.354 157.512 127.994V131.25H156.176V128.332C156.176 127.973 156.113 127.704 155.987 127.527C155.862 127.344 155.661 127.253 155.386 127.253C154.98 127.253 154.702 127.396 154.552 127.683C154.403 127.963 154.328 128.369 154.328 128.899V131.25H152.992V126.256H154.014L154.193 126.896H154.265C154.421 126.64 154.633 126.454 154.902 126.338C155.177 126.223 155.467 126.165 155.772 126.165ZM160.949 130.253C161.098 130.253 161.242 130.241 161.379 130.216C161.517 130.186 161.654 130.146 161.792 130.098V131.113C161.648 131.18 161.469 131.235 161.254 131.277C161.045 131.32 160.814 131.341 160.563 131.341C160.27 131.341 160.007 131.293 159.774 131.195C159.547 131.098 159.364 130.93 159.227 130.692C159.095 130.454 159.03 130.119 159.03 129.686V127.28H158.393V126.704L159.128 126.247L159.514 125.195H160.366V126.256H161.738V127.28H160.366V129.686C160.366 129.875 160.42 130.018 160.527 130.116C160.635 130.207 160.775 130.253 160.949 130.253ZM167.223 128.744C167.223 129.573 167.008 130.213 166.578 130.665C166.153 131.116 165.573 131.341 164.838 131.341C164.383 131.341 163.977 131.241 163.618 131.04C163.265 130.838 162.987 130.546 162.784 130.162C162.58 129.771 162.479 129.299 162.479 128.744C162.479 127.915 162.691 127.277 163.116 126.832C163.54 126.387 164.123 126.165 164.865 126.165C165.325 126.165 165.732 126.265 166.084 126.466C166.437 126.668 166.715 126.96 166.918 127.344C167.122 127.729 167.223 128.195 167.223 128.744ZM163.842 128.744C163.842 129.238 163.92 129.613 164.075 129.869C164.237 130.119 164.497 130.244 164.856 130.244C165.208 130.244 165.462 130.119 165.618 129.869C165.779 129.613 165.86 129.238 165.86 128.744C165.86 128.25 165.779 127.881 165.618 127.637C165.462 127.387 165.205 127.262 164.847 127.262C164.494 127.262 164.237 127.387 164.075 127.637C163.92 127.881 163.842 128.25 163.842 128.744ZM171.063 126.165C171.129 126.165 171.207 126.168 171.296 126.174C171.386 126.18 171.458 126.189 171.512 126.201L171.413 127.482C171.365 127.47 171.302 127.46 171.225 127.454C171.147 127.442 171.078 127.436 171.018 127.436C170.791 127.436 170.573 127.479 170.364 127.564C170.154 127.643 169.984 127.774 169.852 127.957C169.727 128.14 169.664 128.39 169.664 128.707V131.25H168.328V126.256H169.341L169.538 127.098H169.601C169.745 126.841 169.942 126.622 170.193 126.439C170.444 126.256 170.734 126.165 171.063 126.165Z" fill="black"/>
<path d="M176.196 131.25H172.51V124.719H176.196V125.854H173.864V127.29H176.034V128.424H173.864V130.107H176.196V131.25ZM182.838 127.921C182.838 129.024 182.53 129.857 181.914 130.418C181.298 130.973 180.44 131.25 179.34 131.25H177.528V124.719H179.537C180.207 124.719 180.787 124.841 181.277 125.085C181.774 125.329 182.156 125.689 182.425 126.165C182.7 126.64 182.838 127.226 182.838 127.921ZM181.43 127.957C181.43 127.238 181.274 126.707 180.963 126.366C180.652 126.024 180.201 125.854 179.609 125.854H178.883V130.107H179.466C180.775 130.107 181.43 129.39 181.43 127.957Z" fill="#59AD26"/>
<defs>
<filter id="filter0_d_1478_8754" x="75.8789" y="0" width="170.785" height="268.631" filterUnits="userSpaceOnUse" color-interpolation-filters="sRGB">
<feFlood flood-opacity="0" result="BackgroundImageFix"/>
<feColorMatrix in="SourceAlpha" type="matrix" values="0 0 0 0 0 0 0 0 0 0 0 0 0 0 0 0 0 0 127 0" result="hardAlpha"/>
<feOffset dy="2"/>
<feGaussianBlur stdDeviation="7"/>
<feColorMatrix type="matrix" values="0 0 0 0 0.166808 0 0 0 0 0.166808 0 0 0 0 0.166808 0 0 0 0.309441 0"/>
<feBlend mode="normal" in2="BackgroundImageFix" result="effect1_dropShadow_1478_8754"/>
<feBlend mode="normal" in="SourceGraphic" in2="effect1_dropShadow_1478_8754" result="shape"/>
</filter>
<filter id="filter1_i_1478_8754" x="89.8789" y="12" width="142.785" height="241.631" filterUnits="userSpaceOnUse" color-interpolation-filters="sRGB">
<feFlood flood-opacity="0" result="BackgroundImageFix"/>
<feBlend mode="normal" in="SourceGraphic" in2="BackgroundImageFix" result="shape"/>
<feColorMatrix in="SourceAlpha" type="matrix" values="0 0 0 0 0 0 0 0 0 0 0 0 0 0 0 0 0 0 127 0" result="hardAlpha"/>
<feOffset dy="1"/>
<feGaussianBlur stdDeviation="6.5"/>
<feComposite in2="hardAlpha" operator="arithmetic" k2="-1" k3="1"/>
<feColorMatrix type="matrix" values="0 0 0 0 0.684047 0 0 0 0 0.684047 0 0 0 0 0.684047 0 0 0 0.542614 0"/>
<feBlend mode="normal" in2="shape" result="effect1_innerShadow_1478_8754"/>
</filter>
<filter id="filter2_d_1478_8754" x="95.1016" y="45.5315" width="131.752" height="124.521" filterUnits="userSpaceOnUse" color-interpolation-filters="sRGB">
<feFlood flood-opacity="0" result="BackgroundImageFix"/>
<feColorMatrix in="SourceAlpha" type="matrix" values="0 0 0 0 0 0 0 0 0 0 0 0 0 0 0 0 0 0 127 0" result="hardAlpha"/>
<feOffset dy="2"/>
<feGaussianBlur stdDeviation="12"/>
<feColorMatrix type="matrix" values="0 0 0 0 0 0 0 0 0 0 0 0 0 0 0 0 0 0 0.2 0"/>
<feBlend mode="normal" in2="BackgroundImageFix" result="effect1_dropShadow_1478_8754"/>
<feBlend mode="normal" in="SourceGraphic" in2="effect1_dropShadow_1478_8754" result="shape"/>
</filter>
<filter id="filter3_d_1478_8754" x="148" y="94.4517" width="20.7246" height="21.1116" filterUnits="userSpaceOnUse" color-interpolation-filters="sRGB">
<feFlood flood-opacity="0" result="BackgroundImageFix"/>
<feColorMatrix in="SourceAlpha" type="matrix" values="0 0 0 0 0 0 0 0 0 0 0 0 0 0 0 0 0 0 127 0" result="hardAlpha"/>
<feOffset dy="4"/>
<feGaussianBlur stdDeviation="5"/>
<feComposite in2="hardAlpha" operator="out"/>
<feColorMatrix type="matrix" values="0 0 0 0 0 0 0 0 0 0 0 0 0 0 0 0 0 0 0.35 0"/>
<feBlend mode="normal" in2="BackgroundImageFix" result="effect1_dropShadow_1478_8754"/>
<feBlend mode="normal" in="SourceGraphic" in2="effect1_dropShadow_1478_8754" result="shape"/>
</filter>
<filter id="filter4_d_1478_8754" x="148.754" y="94.6472" width="21.0938" height="21.6045" filterUnits="userSpaceOnUse" color-interpolation-filters="sRGB">
<feFlood flood-opacity="0" result="BackgroundImageFix"/>
<feColorMatrix in="SourceAlpha" type="matrix" values="0 0 0 0 0 0 0 0 0 0 0 0 0 0 0 0 0 0 127 0" result="hardAlpha"/>
<feOffset dy="4"/>
<feGaussianBlur stdDeviation="5"/>
<feComposite in2="hardAlpha" operator="out"/>
<feColorMatrix type="matrix" values="0 0 0 0 0 0 0 0 0 0 0 0 0 0 0 0 0 0 0.35 0"/>
<feBlend mode="normal" in2="BackgroundImageFix" result="effect1_dropShadow_1478_8754"/>
<feBlend mode="normal" in="SourceGraphic" in2="effect1_dropShadow_1478_8754" result="shape"/>
</filter>
<filter id="filter5_d_1478_8754" x="149.561" y="95.1638" width="21.0938" height="21.6045" filterUnits="userSpaceOnUse" color-interpolation-filters="sRGB">
<feFlood flood-opacity="0" result="BackgroundImageFix"/>
<feColorMatrix in="SourceAlpha" type="matrix" values="0 0 0 0 0 0 0 0 0 0 0 0 0 0 0 0 0 0 127 0" result="hardAlpha"/>
<feOffset dy="4"/>
<feGaussianBlur stdDeviation="5"/>
<feComposite in2="hardAlpha" operator="out"/>
<feColorMatrix type="matrix" values="0 0 0 0 0 0 0 0 0 0 0 0 0 0 0 0 0 0 0.35 0"/>
<feBlend mode="normal" in2="BackgroundImageFix" result="effect1_dropShadow_1478_8754"/>
<feBlend mode="normal" in="SourceGraphic" in2="effect1_dropShadow_1478_8754" result="shape"/>
</filter>
<filter id="filter6_d_1478_8754" x="150.377" y="95.8464" width="20.8945" height="21.3115" filterUnits="userSpaceOnUse" color-interpolation-filters="sRGB">
<feFlood flood-opacity="0" result="BackgroundImageFix"/>
<feColorMatrix in="SourceAlpha" type="matrix" values="0 0 0 0 0 0 0 0 0 0 0 0 0 0 0 0 0 0 127 0" result="hardAlpha"/>
<feOffset dy="4"/>
<feGaussianBlur stdDeviation="5"/>
<feComposite in2="hardAlpha" operator="out"/>
<feColorMatrix type="matrix" values="0 0 0 0 0 0 0 0 0 0 0 0 0 0 0 0 0 0 0.35 0"/>
<feBlend mode="normal" in2="BackgroundImageFix" result="effect1_dropShadow_1478_8754"/>
<feBlend mode="normal" in="SourceGraphic" in2="effect1_dropShadow_1478_8754" result="shape"/>
</filter>
<linearGradient id="paint0_linear_1478_8754" x1="160.626" y1="67.6274" x2="160.626" y2="144.149" gradientUnits="userSpaceOnUse">
<stop stop-color="white"/>
<stop offset="1" stop-color="#F0F0F0"/>
</linearGradient>
</defs>
</svg>
