<svg width="499" height="486" viewBox="0 0 499 486" fill="none" xmlns="http://www.w3.org/2000/svg">
<path d="M257.266 0.454322C394.533 4.64812 502.306 116.716 498.022 250.745C493.728 384.79 378.99 490.05 241.723 485.857C104.48 481.659 -3.31505 369.601 0.978941 235.566C5.26312 101.538 120.023 -3.73947 257.266 0.454322Z" fill="#B13E33"/>
<g filter="url(#filter0_i_1951_1687)">
<path d="M421.134 107.769C456.085 149.517 475.408 203.953 470.938 261.931C461.722 381.46 355.064 471.344 233.171 462.307C174.039 457.919 122.061 431.005 85.2231 390.85C122.313 435.164 177.007 465.171 239.774 469.82C361.662 478.862 468.301 388.987 477.517 269.458C482.277 207.92 460.233 150.396 421.134 107.769Z" fill="#59B844"/>
</g>
<g filter="url(#filter1_i_1951_1687)">
<path d="M389.356 75.0984C346.128 41.6213 290.258 23.6945 231.225 29.1729C109.527 40.4577 19.8831 146.717 31.3916 266.049C36.9785 323.945 65.3903 374.395 107.036 409.751C61.1519 374.226 29.526 321.158 23.5942 259.716C12.0857 140.382 101.711 34.1443 223.427 22.8594C286.082 17.0428 345.167 37.5646 389.356 75.0984Z" fill="#59B844"/>
</g>
<g filter="url(#filter2_i_1951_1687)">
<path d="M389.039 94.7521C349.837 64.3892 299.161 48.1297 245.62 53.0988C135.243 63.334 53.938 159.707 64.3761 267.939C69.4433 320.449 95.212 366.206 132.98 398.272C91.3679 366.055 62.6841 317.923 57.3039 262.197C46.8658 153.965 128.155 57.6076 238.551 47.3724C295.372 42.0967 348.965 60.7094 389.039 94.7521Z" fill="#3F8330"/>
</g>
<g filter="url(#filter3_i_1951_1687)">
<path d="M118.081 395.43C157.282 425.794 207.958 442.051 261.5 437.082C371.876 426.846 453.182 330.474 442.743 222.242C437.676 169.732 411.908 123.975 374.139 91.9075C415.754 124.128 444.437 172.258 449.818 227.984C460.256 336.216 378.964 432.575 268.574 442.81C211.747 448.086 158.159 429.472 118.081 395.43Z" fill="#3F8330"/>
</g>
<g filter="url(#filter4_d_1951_1687)">
<g filter="url(#filter5_ii_1951_1687)">
<path d="M238.64 202.142C236.843 209.143 232.714 218.99 230.875 223.034C235.126 233.65 242.321 223.131 245.387 216.542L246.409 214.281L247.226 216.542C249.2 216.542 254.053 216.825 257.65 217.955C264.188 221.341 273.044 229.719 276.656 233.481L280.338 234.327L277.678 235.741L283.81 250.424L295.051 239.127L298.933 245.057L329.591 206.095V353.344H369.245V128.17H329.185L274.001 201.012L283.81 220.779C281.22 218.331 275.35 212.703 272.568 209.765C268.154 210.442 260.781 204.215 257.65 201.012C252.676 201.392 241.911 202.142 238.64 202.142Z" fill="white"/>
</g>
<g filter="url(#filter6_ii_1951_1687)">
<path d="M234.147 206.658C224.66 211.179 223.111 209.481 223.517 208.072L226.788 201.012L172.216 128.17H131.749V352.035H172.216V206.658L202.262 245.057L215.547 222.751C214.114 227.551 211.049 238.171 210.232 242.234C216.937 244.494 223.246 253.151 225.561 257.196C226.177 256.162 227.973 253.417 230.264 250.703C236.802 247.317 237.418 256.917 238.846 258.326C244.24 254.712 246.41 260.774 246.816 264.256C247.567 263.597 249.434 262.678 250.903 264.256C255.196 268.493 253.563 273.009 253.358 276.395C256.956 279.557 257.992 276.02 258.057 273.856C256.288 269.999 252.499 261.941 251.519 260.587C250.54 259.232 251.925 258.894 252.747 258.894C254.245 261.717 257.894 268.663 260.511 273.856C265.742 277.018 267.189 271.783 267.254 268.772C265.01 264.352 260.227 254.995 259.079 252.964C257.936 250.932 259.559 250.987 260.511 251.271C262.009 254.373 265.948 262.225 269.709 268.772C274.776 270.356 275.77 265.858 275.635 263.41C272.844 258.235 267.012 247.372 266.032 245.341C265.047 243.309 266.438 242.801 267.254 242.801C269.438 247.221 274.534 256.972 277.473 260.587C281.892 261.488 282.723 256.821 282.583 254.373C281.29 250.987 277.721 242.064 273.796 233.481C266.438 226.933 259.695 222.472 257.24 221.058L247.021 219.081C245.864 220.966 242.607 225.688 238.846 229.527C234.147 234.327 227.199 226.704 228.015 224.727C235.985 206.942 234.147 209.481 234.147 206.658Z" fill="white"/>
</g>
<g filter="url(#filter7_i_1951_1687)">
<path d="M216.774 261.434C214.81 257.142 217.316 252.868 218.818 251.271C221.431 253.078 223.447 257.668 224.129 259.74C222.495 262.092 218.734 265.725 216.774 261.434Z" fill="white"/>
</g>
<g filter="url(#filter8_i_1951_1687)">
<path d="M235.659 263.236C237.165 260.832 236.906 257.115 235.081 254.935C233.256 252.754 230.556 252.935 229.051 255.339L225.426 261.127C223.921 263.531 224.18 267.248 226.005 269.429C227.83 271.609 230.529 271.428 232.035 269.024L235.659 263.236Z" fill="white"/>
</g>
<g filter="url(#filter9_i_1951_1687)">
<path d="M244.655 268.882C246.161 266.479 245.902 262.762 244.077 260.581C242.252 258.401 239.552 258.582 238.047 260.985L234.422 266.774C232.917 269.178 233.176 272.894 235.001 275.075C236.826 277.256 239.525 277.075 241.031 274.671L244.655 268.882Z" fill="white"/>
</g>
<g filter="url(#filter10_i_1951_1687)">
<path d="M251.71 274.547C252.94 272.583 252.728 269.547 251.237 267.766C249.746 265.984 247.541 266.132 246.311 268.096L243.344 272.834C242.114 274.797 242.326 277.834 243.817 279.615C245.308 281.397 247.513 281.249 248.743 279.285L251.71 274.547Z" fill="white"/>
</g>
</g>
<defs>
<filter id="filter0_i_1951_1687" x="85.2231" y="107.769" width="392.935" height="366.678" filterUnits="userSpaceOnUse" color-interpolation-filters="sRGB">
<feFlood flood-opacity="0" result="BackgroundImageFix"/>
<feBlend mode="normal" in="SourceGraphic" in2="BackgroundImageFix" result="shape"/>
<feColorMatrix in="SourceAlpha" type="matrix" values="0 0 0 0 0 0 0 0 0 0 0 0 0 0 0 0 0 0 127 0" result="hardAlpha"/>
<feOffset dy="4"/>
<feGaussianBlur stdDeviation="2"/>
<feComposite in2="hardAlpha" operator="arithmetic" k2="-1" k3="1"/>
<feColorMatrix type="matrix" values="0 0 0 0 0 0 0 0 0 0 0 0 0 0 0 0 0 0 0.25 0"/>
<feBlend mode="normal" in2="shape" result="effect1_innerShadow_1951_1687"/>
</filter>
<filter id="filter1_i_1951_1687" x="22.5989" y="21.8831" width="366.758" height="391.868" filterUnits="userSpaceOnUse" color-interpolation-filters="sRGB">
<feFlood flood-opacity="0" result="BackgroundImageFix"/>
<feBlend mode="normal" in="SourceGraphic" in2="BackgroundImageFix" result="shape"/>
<feColorMatrix in="SourceAlpha" type="matrix" values="0 0 0 0 0 0 0 0 0 0 0 0 0 0 0 0 0 0 127 0" result="hardAlpha"/>
<feOffset dy="4"/>
<feGaussianBlur stdDeviation="2"/>
<feComposite in2="hardAlpha" operator="arithmetic" k2="-1" k3="1"/>
<feColorMatrix type="matrix" values="0 0 0 0 0 0 0 0 0 0 0 0 0 0 0 0 0 0 0.25 0"/>
<feBlend mode="normal" in2="shape" result="effect1_innerShadow_1951_1687"/>
</filter>
<filter id="filter2_i_1951_1687" x="56.4011" y="46.4868" width="332.638" height="355.785" filterUnits="userSpaceOnUse" color-interpolation-filters="sRGB">
<feFlood flood-opacity="0" result="BackgroundImageFix"/>
<feBlend mode="normal" in="SourceGraphic" in2="BackgroundImageFix" result="shape"/>
<feColorMatrix in="SourceAlpha" type="matrix" values="0 0 0 0 0 0 0 0 0 0 0 0 0 0 0 0 0 0 127 0" result="hardAlpha"/>
<feOffset dy="4"/>
<feGaussianBlur stdDeviation="2"/>
<feComposite in2="hardAlpha" operator="arithmetic" k2="-1" k3="1"/>
<feColorMatrix type="matrix" values="0 0 0 0 0 0 0 0 0 0 0 0 0 0 0 0 0 0 0.25 0"/>
<feBlend mode="normal" in2="shape" result="effect1_innerShadow_1951_1687"/>
</filter>
<filter id="filter3_i_1951_1687" x="118.081" y="91.9075" width="332.64" height="355.788" filterUnits="userSpaceOnUse" color-interpolation-filters="sRGB">
<feFlood flood-opacity="0" result="BackgroundImageFix"/>
<feBlend mode="normal" in="SourceGraphic" in2="BackgroundImageFix" result="shape"/>
<feColorMatrix in="SourceAlpha" type="matrix" values="0 0 0 0 0 0 0 0 0 0 0 0 0 0 0 0 0 0 127 0" result="hardAlpha"/>
<feOffset dy="4"/>
<feGaussianBlur stdDeviation="2"/>
<feComposite in2="hardAlpha" operator="arithmetic" k2="-1" k3="1"/>
<feColorMatrix type="matrix" values="0 0 0 0 0 0 0 0 0 0 0 0 0 0 0 0 0 0 0.25 0"/>
<feBlend mode="normal" in2="shape" result="effect1_innerShadow_1951_1687"/>
</filter>
<filter id="filter4_d_1951_1687" x="121.749" y="118.17" width="267.495" height="255.174" filterUnits="userSpaceOnUse" color-interpolation-filters="sRGB">
<feFlood flood-opacity="0" result="BackgroundImageFix"/>
<feColorMatrix in="SourceAlpha" type="matrix" values="0 0 0 0 0 0 0 0 0 0 0 0 0 0 0 0 0 0 127 0" result="hardAlpha"/>
<feOffset dx="5" dy="5"/>
<feGaussianBlur stdDeviation="7.5"/>
<feColorMatrix type="matrix" values="0 0 0 0 0.501961 0 0 0 0 0.501961 0 0 0 0 0.501961 0 0 0 0.5 0"/>
<feBlend mode="normal" in2="BackgroundImageFix" result="effect1_dropShadow_1951_1687"/>
<feBlend mode="normal" in="SourceGraphic" in2="effect1_dropShadow_1951_1687" result="shape"/>
</filter>
<filter id="filter5_ii_1951_1687" x="230.875" y="128.17" width="140.37" height="229.174" filterUnits="userSpaceOnUse" color-interpolation-filters="sRGB">
<feFlood flood-opacity="0" result="BackgroundImageFix"/>
<feBlend mode="normal" in="SourceGraphic" in2="BackgroundImageFix" result="shape"/>
<feColorMatrix in="SourceAlpha" type="matrix" values="0 0 0 0 0 0 0 0 0 0 0 0 0 0 0 0 0 0 127 0" result="hardAlpha"/>
<feOffset dx="2" dy="4"/>
<feGaussianBlur stdDeviation="5"/>
<feComposite in2="hardAlpha" operator="arithmetic" k2="-1" k3="1"/>
<feColorMatrix type="matrix" values="0 0 0 0 0 0 0 0 0 0 0 0 0 0 0 0 0 0 0.35 0"/>
<feBlend mode="normal" in2="shape" result="effect1_innerShadow_1951_1687"/>
<feColorMatrix in="SourceAlpha" type="matrix" values="0 0 0 0 0 0 0 0 0 0 0 0 0 0 0 0 0 0 127 0" result="hardAlpha"/>
<feOffset dy="4"/>
<feGaussianBlur stdDeviation="2"/>
<feComposite in2="hardAlpha" operator="arithmetic" k2="-1" k3="1"/>
<feColorMatrix type="matrix" values="0 0 0 0 1 0 0 0 0 1 0 0 0 0 1 0 0 0 0.25 0"/>
<feBlend mode="normal" in2="effect1_innerShadow_1951_1687" result="effect2_innerShadow_1951_1687"/>
</filter>
<filter id="filter6_ii_1951_1687" x="131.749" y="128.17" width="152.848" height="227.865" filterUnits="userSpaceOnUse" color-interpolation-filters="sRGB">
<feFlood flood-opacity="0" result="BackgroundImageFix"/>
<feBlend mode="normal" in="SourceGraphic" in2="BackgroundImageFix" result="shape"/>
<feColorMatrix in="SourceAlpha" type="matrix" values="0 0 0 0 0 0 0 0 0 0 0 0 0 0 0 0 0 0 127 0" result="hardAlpha"/>
<feOffset dy="4"/>
<feGaussianBlur stdDeviation="2"/>
<feComposite in2="hardAlpha" operator="arithmetic" k2="-1" k3="1"/>
<feColorMatrix type="matrix" values="0 0 0 0 0 0 0 0 0 0 0 0 0 0 0 0 0 0 0.25 0"/>
<feBlend mode="normal" in2="shape" result="effect1_innerShadow_1951_1687"/>
<feColorMatrix in="SourceAlpha" type="matrix" values="0 0 0 0 0 0 0 0 0 0 0 0 0 0 0 0 0 0 127 0" result="hardAlpha"/>
<feOffset dx="2" dy="4"/>
<feGaussianBlur stdDeviation="5"/>
<feComposite in2="hardAlpha" operator="arithmetic" k2="-1" k3="1"/>
<feColorMatrix type="matrix" values="0 0 0 0 0.9625 0 0 0 0 0.940042 0 0 0 0 0.940042 0 0 0 0.35 0"/>
<feBlend mode="normal" in2="effect1_innerShadow_1951_1687" result="effect2_innerShadow_1951_1687"/>
</filter>
<filter id="filter7_i_1951_1687" x="216.052" y="251.271" width="8.07617" height="16.1538" filterUnits="userSpaceOnUse" color-interpolation-filters="sRGB">
<feFlood flood-opacity="0" result="BackgroundImageFix"/>
<feBlend mode="normal" in="SourceGraphic" in2="BackgroundImageFix" result="shape"/>
<feColorMatrix in="SourceAlpha" type="matrix" values="0 0 0 0 0 0 0 0 0 0 0 0 0 0 0 0 0 0 127 0" result="hardAlpha"/>
<feOffset dy="4"/>
<feGaussianBlur stdDeviation="5"/>
<feComposite in2="hardAlpha" operator="arithmetic" k2="-1" k3="1"/>
<feColorMatrix type="matrix" values="0 0 0 0 0 0 0 0 0 0 0 0 0 0 0 0 0 0 0.35 0"/>
<feBlend mode="normal" in2="shape" result="effect1_innerShadow_1951_1687"/>
</filter>
<filter id="filter8_i_1951_1687" x="224.447" y="253.411" width="12.1919" height="21.542" filterUnits="userSpaceOnUse" color-interpolation-filters="sRGB">
<feFlood flood-opacity="0" result="BackgroundImageFix"/>
<feBlend mode="normal" in="SourceGraphic" in2="BackgroundImageFix" result="shape"/>
<feColorMatrix in="SourceAlpha" type="matrix" values="0 0 0 0 0 0 0 0 0 0 0 0 0 0 0 0 0 0 127 0" result="hardAlpha"/>
<feOffset dy="4"/>
<feGaussianBlur stdDeviation="5"/>
<feComposite in2="hardAlpha" operator="arithmetic" k2="-1" k3="1"/>
<feColorMatrix type="matrix" values="0 0 0 0 0 0 0 0 0 0 0 0 0 0 0 0 0 0 0.35 0"/>
<feBlend mode="normal" in2="shape" result="effect1_innerShadow_1951_1687"/>
</filter>
<filter id="filter9_i_1951_1687" x="233.443" y="259.057" width="12.1919" height="21.542" filterUnits="userSpaceOnUse" color-interpolation-filters="sRGB">
<feFlood flood-opacity="0" result="BackgroundImageFix"/>
<feBlend mode="normal" in="SourceGraphic" in2="BackgroundImageFix" result="shape"/>
<feColorMatrix in="SourceAlpha" type="matrix" values="0 0 0 0 0 0 0 0 0 0 0 0 0 0 0 0 0 0 127 0" result="hardAlpha"/>
<feOffset dy="4"/>
<feGaussianBlur stdDeviation="5"/>
<feComposite in2="hardAlpha" operator="arithmetic" k2="-1" k3="1"/>
<feColorMatrix type="matrix" values="0 0 0 0 0 0 0 0 0 0 0 0 0 0 0 0 0 0 0.35 0"/>
<feBlend mode="normal" in2="shape" result="effect1_innerShadow_1951_1687"/>
</filter>
<filter id="filter10_i_1951_1687" x="242.544" y="266.521" width="9.96558" height="18.3396" filterUnits="userSpaceOnUse" color-interpolation-filters="sRGB">
<feFlood flood-opacity="0" result="BackgroundImageFix"/>
<feBlend mode="normal" in="SourceGraphic" in2="BackgroundImageFix" result="shape"/>
<feColorMatrix in="SourceAlpha" type="matrix" values="0 0 0 0 0 0 0 0 0 0 0 0 0 0 0 0 0 0 127 0" result="hardAlpha"/>
<feOffset dy="4"/>
<feGaussianBlur stdDeviation="5"/>
<feComposite in2="hardAlpha" operator="arithmetic" k2="-1" k3="1"/>
<feColorMatrix type="matrix" values="0 0 0 0 0 0 0 0 0 0 0 0 0 0 0 0 0 0 0.35 0"/>
<feBlend mode="normal" in2="shape" result="effect1_innerShadow_1951_1687"/>
</filter>
</defs>
</svg>
