<svg width="184" height="184" viewBox="0 0 184 184" fill="none" xmlns="http://www.w3.org/2000/svg">
<path d="M127.65 154.867C127.65 137.003 109.864 122.437 87.8603 122.437C65.857 122.437 48.0703 136.927 48.0703 154.867M87.8603 105.263C93.574 105.263 99.0536 102.994 103.094 98.9534C107.134 94.9133 109.404 89.4337 109.404 83.72C109.404 78.0064 107.134 72.5267 103.094 68.4866C99.0536 64.4464 93.574 62.1767 87.8603 62.1767C82.1467 62.1767 76.667 64.4464 72.6269 68.4866C68.5867 72.5267 66.317 78.0064 66.317 83.72C66.317 89.4337 68.5867 94.9133 72.6269 98.9534C76.667 102.994 82.1467 105.263 87.8603 105.263Z" stroke="black" stroke-width="1.5" stroke-linecap="round" stroke-linejoin="round"/>
<path d="M161 95.8333C161 136.083 128.416 168.667 88.1663 168.667C47.9163 168.667 15.333 136.083 15.333 95.8333C15.333 55.5833 47.9163 23 88.1663 23C98.2097 23 107.793 24.9933 116.533 28.6733C115.536 31.74 115 34.96 115 38.3333C115 44.0833 116.61 49.5267 119.446 54.1267C120.98 56.7333 122.973 59.11 125.273 61.1033C130.64 66.01 137.77 69 145.666 69C149.04 69 152.26 68.4633 155.25 67.39C158.93 76.13 161 85.79 161 95.8333Z" stroke="black" stroke-width="1.5" stroke-linecap="round" stroke-linejoin="round"/>
<path d="M157.09 38.18H134.243M145.667 26.9867V49.91M176.333 38.3333C176.333 40.7867 176.027 43.1633 175.413 45.4633C174.723 48.53 173.497 51.52 171.887 54.1267C168.207 60.3367 162.303 65.1667 155.25 67.39C152.26 68.4633 149.04 69 145.667 69C138.118 69.0222 130.838 66.2032 125.273 61.1033C122.973 59.11 120.98 56.7333 119.447 54.1267C116.528 49.3766 114.989 43.9083 115 38.3333C115 34.96 115.537 31.74 116.533 28.6733C118.559 22.5505 122.466 17.2234 127.698 13.4514C132.929 9.67942 139.217 7.65499 145.667 7.66668C154.713 7.66668 162.917 11.5767 168.437 17.8633C173.343 23.3067 176.333 30.5133 176.333 38.3333Z" stroke="black" stroke-width="1.5" stroke-miterlimit="10" stroke-linecap="round" stroke-linejoin="round"/>
</svg>
